<svg width="713" height="713" viewBox="0 0 713 713" fill="none" xmlns="http://www.w3.org/2000/svg">
<path d="M139.648 536.704H89.5101V552.661H139.648V536.704Z" fill="#EBEBEB"/>
<path d="M395.387 146.807H345.249V162.764H395.387V146.807Z" fill="#EBEBEB"/>
<path d="M111.684 572.781C103.328 572.924 82.266 573.28 74.1949 573.38H61.5462H60.9045V572.724V556.767V556.14H61.6175L86.6866 556.24C92.9182 556.24 105.51 556.439 111.756 556.525H112.098V556.853L111.77 572.81L111.684 572.781ZM111.684 572.781L111.342 556.824L111.684 557.167C105.424 557.252 92.8612 557.395 86.6153 557.452L61.5462 557.566L62.2592 556.853V572.81L61.6033 572.168H74.0237C81.9666 572.268 103.513 572.625 111.741 572.753L111.684 572.781Z" fill="#EBEBEB"/>
<path d="M580.525 372.457C572.168 372.6 551.106 372.956 543.035 373.042H530.387H529.745V372.386L529.674 356.5V355.787H530.387L555.456 355.887C561.702 355.887 574.293 356.072 580.525 356.158H580.867V356.5L580.525 372.457ZM580.525 372.457L580.182 356.5L580.525 356.842C574.279 356.928 561.716 357.056 555.456 357.113L530.387 357.213L531.1 356.5V372.457L530.444 371.801H542.878C550.821 371.887 572.368 372.243 580.582 372.386L580.525 372.457Z" fill="#EBEBEB"/>
<path d="M552.561 392.578C544.205 392.72 523.143 393.077 515.071 393.162L502.423 393.234H501.781V392.578L501.71 376.621V375.908H502.423L527.492 376.008C533.738 376.008 546.315 376.193 552.561 376.279H552.903V376.607L552.561 392.564V392.578ZM552.561 392.578L552.219 376.621L552.561 376.963C546.301 377.049 533.752 377.177 527.492 377.234L502.423 377.334L503.136 376.621V392.578L502.48 391.922L514.9 391.993C522.857 392.079 544.404 392.435 552.618 392.578H552.561Z" fill="#EBEBEB"/>
<path d="M524.711 356.5H474.573V372.457H524.711V356.5Z" fill="#EBEBEB"/>
<path d="M651.454 556.825H601.316V572.781H651.454V556.825Z" fill="#EBEBEB"/>
<path d="M623.49 64.0702H573.352V80.0271H623.49V64.0702Z" fill="#EBEBEB"/>
<path d="M651.454 100.148C643.098 100.291 622.036 100.647 613.964 100.747H601.316H600.674V100.091L600.603 84.134V83.421H601.316L626.385 83.5208C632.631 83.5208 645.208 83.7062 651.454 83.806H651.796V84.134L651.454 100.091V100.148ZM651.454 100.148L651.112 84.134L651.454 84.4763C645.194 84.5618 632.645 84.7044 626.385 84.7472L601.316 84.847L602.029 84.134V100.091L601.373 99.4493H613.793C621.75 99.5348 643.297 99.9056 651.511 100.034L651.454 100.148Z" fill="#EBEBEB"/>
<path d="M139.648 80.0271C131.292 80.1697 110.23 80.5262 102.159 80.626H89.5101H88.8684V79.9701V64.0131V63.3001H89.5814L114.65 63.4C120.896 63.4 133.474 63.5853 139.72 63.6852H140.062V64.0131L139.72 79.9701L139.648 80.0271ZM139.648 80.0271L139.306 64.0702L139.648 64.4124C133.388 64.498 120.825 64.6406 114.579 64.6834L89.5101 64.7832L90.2231 64.0702V80.0271L89.5672 79.3854H101.988C109.93 79.471 131.477 79.8417 139.705 79.9701L139.648 80.0271Z" fill="#EBEBEB"/>
<path d="M101.403 57.9241V282.747H266.077V57.9241H101.403ZM260.003 276.644H107.421V63.9989H260.003V276.644Z" fill="#EBEBEB"/>
<path d="M260.003 63.9989H107.492V276.673H260.003V63.9989Z" fill="white"/>
<path d="M107.478 187.619L259.988 187.619V181.544L107.478 181.544V187.619Z" fill="#EBEBEB"/>
<path d="M90.2089 300.173H277.243V282.733H90.2089V300.173Z" fill="#DBDBDB"/>
<path d="M107.478 63.9846H260.06V220.032H107.478V63.9846ZM254.356 69.6886H113.11V214.413H254.37L254.356 69.6886Z" fill="#DBDBDB"/>
<path d="M211.319 63.9846H208.282V214.399H211.319V63.9846Z" fill="#DBDBDB"/>
<path d="M159.199 63.9846H156.161V214.399H159.199V63.9846Z" fill="#DBDBDB"/>
<path d="M446.937 57.9241V282.747H611.597V57.9241H446.937ZM605.522 276.644H453.012V63.9989H605.594L605.522 276.644Z" fill="#EBEBEB"/>
<path d="M605.522 63.9989H453.012V276.673H605.522V63.9989Z" fill="white"/>
<path d="M453.012 187.619L605.522 187.619V181.544L453.012 181.544V187.619Z" fill="#EBEBEB"/>
<path d="M435.757 300.173H622.791V282.733H435.757V300.173Z" fill="#DBDBDB"/>
<path d="M453.012 63.9846H605.594V220.032H453.012V63.9846ZM599.89 69.6886H458.63V214.413H599.89V69.6886Z" fill="#DBDBDB"/>
<path d="M556.839 63.9846H553.801V214.399H556.839V63.9846Z" fill="#DBDBDB"/>
<path d="M504.719 63.9846H501.681V214.399H504.719V63.9846Z" fill="#DBDBDB"/>
<path d="M174.885 503.435H117.488L84.6332 339.659L137.196 315.503L174.885 503.435Z" fill="#DBDBDB"/>
<path d="M339.174 503.435H174.885L137.196 315.503H301.485L339.174 503.435Z" fill="#EBEBEB"/>
<path d="M145.424 415.565H57.4536V596.068H145.424V415.565Z" fill="#DBDBDB"/>
<path d="M381.398 596.054H357.356L321.549 415.565H381.398V596.054Z" fill="#DBDBDB"/>
<path d="M193.765 415.565H145.424V596.068H193.765V415.565Z" fill="#EBEBEB"/>
<path d="M429.739 415.565H381.398V596.068H429.739V415.565Z" fill="#EBEBEB"/>
<path d="M381.398 503.435H193.751V596.054H381.398V503.435Z" fill="#EBEBEB"/>
<path d="M381.398 463.393H193.751V503.806H381.398V463.393Z" fill="#EBEBEB"/>
<path d="M157.259 415.565L175.512 415.237L193.751 415.009H194.307V415.565L194.507 436.684L194.592 457.803C194.592 471.892 194.692 485.967 194.592 500.055C194.492 514.144 194.592 528.219 194.35 542.308C194.107 556.397 194.036 570.471 193.736 584.546C193.442 570.467 193.237 556.387 193.123 542.308C192.952 528.219 192.938 514.144 192.881 500.055C192.824 485.967 192.881 471.892 192.881 457.803L192.952 436.684L193.152 415.565L193.708 416.121L175.469 415.893L157.259 415.565Z" fill="#DBDBDB"/>
<path d="M381.398 415.565C381.769 429.697 381.954 443.828 382.097 457.96L382.311 500.369L382.168 542.764L381.911 563.969L381.469 585.173L381.027 563.969L380.742 542.764L380.528 500.369L380.742 457.96C380.842 443.828 381.013 429.697 381.398 415.565Z" fill="#DBDBDB"/>
<path d="M381.398 503.378C365.712 503.749 350.126 503.934 334.483 504.077L287.582 504.291L240.666 504.077L217.208 503.82L193.751 503.378L217.208 502.936L240.666 502.679L287.582 502.465L334.483 502.679C350.126 502.879 365.755 503.064 381.398 503.378Z" fill="#DBDBDB"/>
<path d="M381.398 463.45C365.712 463.821 350.126 464.006 334.483 464.149L287.582 464.363L240.666 464.149L217.208 463.892L193.751 463.45L217.208 463.008L240.666 462.751L287.582 462.537L334.483 462.751C350.126 462.837 365.755 463.022 381.398 463.45Z" fill="#DBDBDB"/>
<path d="M90.879 596.054L89.6955 610.684L86.9147 644.466H74.1806L71.3999 610.684L70.202 596.054H90.879Z" fill="#C7C7C7"/>
<path d="M70.202 596.054H90.879L89.6955 610.685H71.3999L70.202 596.054Z" fill="#A6A6A6"/>
<path d="M179.918 596.054L178.735 610.684L175.954 644.466H163.22L160.439 610.684L159.256 596.054H179.918Z" fill="#C7C7C7"/>
<path d="M159.256 596.054H179.918L178.735 610.685H160.439L159.256 596.054Z" fill="#A6A6A6"/>
<path d="M327.609 596.054L326.426 610.684L323.645 644.466H310.911L308.13 610.684L306.947 596.054H327.609Z" fill="#C7C7C7"/>
<path d="M306.947 596.054H327.609L326.426 610.685H308.13L306.947 596.054Z" fill="#A6A6A6"/>
<path d="M416.677 596.054L415.479 610.684L412.713 644.466H399.965L397.198 610.684L396 596.054H416.677Z" fill="#C7C7C7"/>
<path d="M416.677 596.054L415.479 610.685H397.198L396 596.054H416.677Z" fill="#A6A6A6"/>
<path d="M57.4536 644.466C249.037 643.597 463.963 643.582 655.547 644.466C463.963 645.351 249.037 645.336 57.4536 644.466Z" fill="#263238"/>
<path d="M110.244 402.717C110.696 395.074 111.773 387.481 113.467 380.015C115.064 373.298 117.331 366.439 121.567 360.878C125.445 355.816 130.992 351.78 137.452 350.981C143.67 350.226 149.516 352.992 154.165 356.914C159.869 361.776 164.332 368.207 168.425 374.439C172.961 381.414 177.089 388.647 180.788 396.1C180.917 396.357 180.546 396.556 180.418 396.314C177.218 389.986 173.522 383.921 169.366 378.175C165.574 372.671 161.308 367.508 156.618 362.746C152.34 358.582 146.921 354.675 140.746 354.475C134.572 354.275 128.91 357.741 125.203 362.489C121.053 367.794 118.957 374.425 117.374 380.885C115.739 387.99 114.671 395.214 114.18 402.489C112.968 417.433 112.64 432.435 112.298 447.45C112.107 455.94 111.979 464.424 111.913 472.904C111.913 477.182 111.913 481.46 111.813 485.738C111.975 489.89 111.808 494.048 111.314 498.173C111.171 499 109.888 498.929 109.674 498.173C109.17 494.268 108.979 490.33 109.103 486.394C109.103 482.316 108.989 478.238 108.961 474.174C108.961 466.245 108.847 458.331 108.875 450.402C108.975 434.531 109.16 418.574 110.244 402.717Z" fill="#263238"/>
<path d="M131.591 391.437C132.376 387.159 133.802 381.712 136.212 378.432C140.49 372.542 145.21 375.109 140.889 381.626C137.698 386.46 135.628 391.946 134.828 397.683C134.828 397.683 142.087 408.078 150.857 413.198C150.486 409.205 149.359 403.059 150.144 397.127C151.826 384.293 159.584 385.02 157.659 395.216C156.118 403.387 155.491 412.071 155.905 415.836C158.838 417.735 161.988 419.276 165.288 420.428C164.774 419.002 164.247 417.162 163.662 414.994C160.539 403.487 168.211 399.893 168.453 406.438C168.95 411.96 169.947 417.425 171.434 422.766C175.712 424.192 179.134 425.148 181.273 425.889C186.798 427.942 191.735 431.32 195.647 435.729C199.645 432.118 202.963 427.819 205.444 423.037C202.763 420.727 198.528 417.333 192.61 413.141C181.587 405.355 185.48 395.515 194.164 401.633C200.481 406.053 205.358 414.224 207.583 418.431C210.565 411.115 212.259 403.338 212.588 395.444C203.918 387.316 182.514 375.979 188.959 375.979C194.777 375.979 207.768 384.535 212.545 387.786C212.418 385.55 212.171 383.322 211.804 381.113C203.647 375.765 177.152 367.437 181.373 365.042C186.007 362.418 204.503 370.988 210.093 373.698C209.043 370.06 207.385 366.627 205.187 363.544C193.922 348.443 173.601 343.252 164.732 346.119C158.457 348.158 160.297 364.086 158.942 363.544C133.787 353.334 122.322 360.507 131.591 391.437ZM193.38 389.697C195.162 387.53 203.362 393.89 201.037 397.369C198.713 400.849 191.084 392.464 193.38 389.697ZM150.158 376.107C152.325 377.533 149.117 385.548 145.751 383.109C142.899 381.027 147.962 374.71 150.158 376.107Z" fill="#F0555F"/>
<path d="M153.452 378.574C154.593 376.321 155.776 374.083 157.074 371.929C158.266 369.786 159.66 367.761 161.238 365.883C160.881 365.441 160.539 364.985 160.168 364.557C160.012 364.371 160.268 364.129 160.425 364.3C160.853 364.785 161.252 365.284 161.666 365.726C161.744 365.772 161.804 365.842 161.837 365.926C163.396 367.827 164.869 369.728 166.257 371.63C168.738 372.201 171.185 372.911 173.587 373.755C176.054 374.582 178.507 375.437 180.902 376.45C181.159 376.564 181.031 376.977 180.788 376.863C178.407 375.808 175.983 374.796 173.516 374.011C171.049 373.227 168.81 372.585 166.386 371.944C167.156 373.042 167.912 374.125 168.639 375.238C173.09 376.651 177.42 378.421 181.587 380.528C185.95 382.61 190.143 385.02 194.421 387.444C194.663 387.587 194.421 387.958 194.207 387.815C190.088 385.402 185.847 383.203 181.501 381.227C177.437 379.33 173.245 377.776 169.166 375.965C179.434 392.15 185.608 410.688 193.936 427.8C194.05 428.042 193.665 428.256 193.565 428C191.041 421.982 188.146 416.121 185.394 410.189C182.927 404.87 180.532 399.522 178.065 394.203C177.342 392.654 176.601 391.1 175.84 389.54C176.296 398.096 176.111 406.866 177.523 415.351C177.523 415.408 177.5 415.462 177.46 415.502C177.42 415.542 177.366 415.565 177.309 415.565C177.252 415.565 177.198 415.542 177.158 415.502C177.118 415.462 177.095 415.408 177.095 415.351C176.496 406.182 174.885 397.155 174.956 387.929C174.948 387.887 174.948 387.843 174.956 387.801C173.216 384.293 171.348 380.842 169.338 377.476C165.929 385.505 162.35 393.662 160.782 402.289C160.782 402.545 160.311 402.431 160.382 402.16C162.692 393.519 164.846 384.863 168.938 376.863C166.752 373.223 164.327 369.731 161.68 366.411C160.539 368.55 159.07 370.56 157.773 372.6C156.475 374.639 155.263 376.607 154.079 378.66C151.545 383.004 149.393 387.561 147.648 392.278C147.548 392.535 147.135 392.392 147.235 392.15C149.217 387.615 151.156 383.024 153.452 378.574Z" fill="#263238"/>
<path d="M72.3125 398.125C78.9291 391.494 86.5725 382.795 96.8112 382.81C106.665 382.81 113.923 390.767 118.073 398.952C122.436 407.508 123.991 417.219 125.203 426.645C126.642 437.945 127.513 449.31 127.812 460.698C127.984 467.015 127.969 473.346 127.812 479.664C127.83 486.075 127.353 492.477 126.386 498.815C126.201 499.827 124.575 499.87 124.504 498.815C124.219 493.482 124.504 488.134 124.504 482.815C124.504 477.496 124.504 472.32 124.247 467.129C123.862 456.52 123.092 445.924 121.852 435.386C120.754 426.189 119.898 416.72 117.146 407.822C114.665 399.793 110.016 390.624 101.873 387.102C90.7364 382.168 79.856 390.966 72.726 398.396C72.4551 398.581 72.1271 398.31 72.3125 398.125Z" fill="#263238"/>
<path d="M38.6161 412.927C38.6161 414.282 38.7444 415.622 38.8443 416.934C42.024 414.563 45.7433 413.019 49.6676 412.442C59.0364 411.458 58.4375 418.588 52.1774 418.888C47.7764 418.945 43.4244 419.82 39.3434 421.469C40.8692 433.846 44.2773 443.814 44.7907 443.942C53.1096 443.468 61.3859 442.42 69.5603 440.805C67.2359 435.843 61.9169 429.24 64.6263 428.698C67.3357 428.157 70.3303 434.046 71.7563 440.349C77.9053 439.188 83.9518 437.538 89.838 435.415C85.7026 431.836 79.3284 427.387 81.7669 425.504C84.2053 423.622 89.2676 429.868 92.2907 434.417C95.0539 433.29 97.6687 431.83 100.077 430.067C94.5296 421.896 80.9826 420.242 82.7508 414.381C84.519 408.521 97.1819 416.663 102.872 427.6C109.56 420.656 111.513 410.845 110.814 402.474C104.996 401.79 93.8023 403.016 94.6009 398.838C95.3994 394.66 103.499 395.458 110.13 397.897C109.522 394.578 108.193 391.434 106.237 388.685C100.048 380.742 81.282 390.724 81.282 390.724C81.282 390.724 83.2784 371.901 76.1484 368.65C72.0273 366.781 64.7404 366.796 57.4963 371.088C61.5747 371.416 66.5087 372.714 68.4908 375.551C71.0291 379.173 67.0648 381.141 64.4837 379.473C62.7012 378.289 59.3501 374.553 53.3039 374.068C50.7213 376.245 48.4473 378.764 46.5447 381.555C45.8602 382.525 45.2185 383.551 44.5768 384.664C48.031 383.11 51.7863 382.34 55.5732 382.409C59.3601 382.478 63.0848 383.384 66.4801 385.063C74.5941 389.098 70.0594 397.526 63.0863 394.246C56.1131 390.966 49.4537 387.758 42.0528 389.612C39.439 396.32 38.2305 403.494 38.502 410.688C42.1198 408.04 46.195 406.082 50.5232 404.913C58.5801 402.788 61.0186 407.608 52.1631 408.521C47.3962 409.059 42.7879 410.558 38.6161 412.927ZM48.484 399.979C47.9136 397.355 53.6461 396.613 54.5873 398.724C55.3431 400.535 48.9831 402.588 48.484 399.979ZM97.4243 414.453C97.952 413.027 101.788 414.652 101.431 416.435C100.918 418.802 96.8539 415.879 97.3816 414.453H97.4243ZM70.3303 423.636C73.111 422.51 77.4603 429.454 74.4372 431.037C71.4141 432.62 68.0773 424.549 70.3589 423.636H70.3303Z" fill="#F0555F"/>
<path d="M45.8601 442.531C50.0526 435.486 54.2165 428.427 58.6941 421.511C60.7476 418.303 62.9721 415.151 65.1397 412.057C64.8117 412.057 64.4694 411.886 64.1415 411.829C63.5853 411.7 63.0292 411.601 62.473 411.501C61.1754 411.273 59.8777 411.087 58.5658 410.959C57.2539 410.831 56.1131 410.759 54.8867 410.745C53.5662 410.673 52.2417 410.745 50.9367 410.959C50.7798 410.959 50.7513 410.745 50.9367 410.745C52.2486 410.745 53.5891 410.631 54.901 410.602C56.2129 410.574 57.4678 410.602 58.7369 410.702C60.0061 410.802 61.1326 410.888 62.3162 411.073C62.9721 411.173 63.6281 411.287 64.2698 411.415C64.6685 411.48 65.0635 411.566 65.4534 411.672C67.735 408.535 70.0879 405.469 72.5834 402.46C65.3055 398.913 57.5537 396.434 49.5677 395.102C49.4251 395.102 49.4822 394.874 49.5677 394.902C57.6757 396.035 65.5539 398.442 72.9114 402.032C74.2518 400.378 75.6017 398.733 76.9612 397.098C78.487 395.273 80.1127 393.476 81.4816 391.537C81.5814 391.408 81.7668 391.537 81.6527 391.665C79.7597 393.745 77.9794 395.926 76.3195 398.196C79.3244 400.29 82.183 402.587 84.8755 405.07C87.7275 407.551 90.3941 410.118 93.0465 412.741C93.1463 412.841 93.0465 412.998 92.9039 412.898C90.28 410.284 87.5516 407.798 84.7186 405.44C81.8666 403.087 78.8863 400.906 76.0343 398.567C75.3783 399.437 74.7224 400.307 74.0664 401.148L73.0825 402.446L73.0112 402.531C71.9132 403.957 70.8294 405.383 69.7456 406.809C71.017 408.653 72.1059 410.616 72.9969 412.67C73.9381 414.652 74.7509 416.706 75.5067 418.773C77.0168 423.068 78.1897 427.473 79.0146 431.95C79.0146 432.078 78.8435 432.149 78.815 431.95C77.9153 427.54 76.6317 423.217 74.9791 419.03C74.1662 416.877 73.2393 414.752 72.2839 412.699C71.3285 410.645 70.3446 408.963 69.5317 406.995C68.5906 408.25 67.6494 409.504 66.6797 410.774C66.4231 411.144 66.1664 411.529 65.8954 411.9C65.9087 411.917 65.9171 411.937 65.9197 411.958C65.9222 411.979 65.9189 412 65.91 412.019C65.9011 412.038 65.887 412.055 65.8694 412.067C65.8517 412.078 65.8311 412.085 65.8099 412.085C62.9579 416.121 60.1059 420.256 57.5106 424.435C57.6671 424.723 57.7868 425.029 57.8671 425.347C58.0382 425.846 58.2093 426.36 58.3519 426.873C58.6514 427.914 58.8938 428.955 59.0934 430.01C59.2931 431.065 59.4071 432.007 59.507 433.005C59.521 434.145 59.6067 435.283 59.7636 436.413C59.77 436.43 59.7722 436.449 59.7699 436.467C59.7675 436.485 59.7608 436.503 59.7503 436.518C59.7398 436.533 59.7258 436.545 59.7095 436.554C59.6932 436.562 59.6751 436.567 59.6567 436.567C59.6383 436.567 59.6202 436.562 59.6038 436.554C59.5875 436.545 59.5735 436.533 59.563 436.518C59.5525 436.503 59.5458 436.485 59.5435 436.467C59.5412 436.449 59.5433 436.43 59.5497 436.413C59.6296 435.348 59.5527 434.276 59.3216 433.233C59.1647 432.149 58.9651 431.066 58.7084 429.996C58.4517 428.927 58.2236 428.071 57.9384 427.144C57.7958 426.659 57.6389 426.189 57.482 425.718C57.3965 425.476 57.2681 425.205 57.1826 424.934C55.942 426.902 54.7013 428.869 53.475 430.866C51.0508 434.787 48.6551 438.737 46.2452 442.673C46.0455 442.901 45.7318 442.73 45.8601 442.531Z" fill="#263238"/>
<path d="M110.686 496.533C110.8 492.555 111.428 488.533 111.855 484.569C112.283 480.605 112.74 476.612 113.167 472.633C113.98 464.947 114.436 457.104 116.248 449.575C117.573 443.024 120.837 437.022 125.616 432.349C128.083 429.875 131.325 428.324 134.8 427.957C138.295 427.85 141.726 428.908 144.554 430.966C147.782 433.343 150.563 436.273 152.767 439.622C155.145 442.928 157.28 446.402 159.156 450.017C159.156 450.145 159.013 450.231 158.942 450.103C155.393 444.07 150.687 438.797 145.096 434.588C142.613 432.535 139.574 431.269 136.368 430.951C134.805 430.925 133.252 431.21 131.8 431.79C130.348 432.37 129.026 433.234 127.912 434.331C123.263 438.367 120.583 444.313 118.985 450.145C117.089 457.062 116.476 464.405 115.52 471.436C114.964 475.714 114.422 479.878 113.866 484.084C113.31 488.291 112.968 492.64 112.069 496.733C112.043 496.916 111.945 497.082 111.796 497.193C111.648 497.304 111.461 497.351 111.278 497.325C111.094 497.298 110.929 497.2 110.818 497.052C110.707 496.903 110.66 496.717 110.686 496.533Z" fill="#263238"/>
<path d="M130.279 465.589C131.49 467.257 132.93 468.745 134.557 470.01C133.901 466.117 133.131 459.215 135.071 455.536C138.122 449.832 141.716 452.684 139.905 457.632C138.1 462.117 137.105 466.888 136.967 471.721C141.116 474.319 145.558 476.416 150.201 477.967C149.712 475.73 149.567 473.431 149.773 471.15C150.372 465.047 155.049 465.161 153.837 471.507C153.389 473.972 153.174 476.474 153.195 478.979C159.94 481.052 166.833 482.606 173.815 483.628C177.384 478.999 180.266 473.879 182.371 468.427C177.394 467.172 167.341 466.901 167.555 463.336C167.84 458.559 177.537 462.238 183.241 465.703C184.54 461.554 185.124 457.214 184.966 452.869C180.493 451.624 175.899 450.864 171.263 450.602C161.024 449.718 161.537 443.914 168.953 444.042C174.414 444.142 181.33 447.493 184.638 449.233C182.514 435.315 171.89 426.417 163.377 426.046C149.117 425.476 154.222 443.286 154.222 443.286C154.222 443.286 144.525 436.456 135.37 436.641C126.215 436.827 120.497 451.956 130.279 465.589ZM168.496 439.821C168.182 437.825 174.571 437.34 174.899 439.907C175.284 442.802 168.824 441.86 168.496 439.821ZM178.778 460.726C178.635 459.414 181.401 459.186 182.029 460.84C182.442 461.91 178.877 462.024 178.778 460.726ZM144.411 461.953C146.564 462.252 147.791 469.967 144.083 469.81C141.245 469.696 142.6 461.682 144.411 462.024V461.953Z" fill="#F0555F"/>
<path d="M147.391 470.58C147.748 469.61 148.076 468.641 148.375 467.728C148.09 468.726 147.848 469.71 147.662 470.723C147.62 470.78 147.32 470.708 147.391 470.58Z" fill="#263238"/>
<path d="M151.156 458.117C151.826 456.135 152.582 454.181 153.352 452.242C153.77 451.205 154.198 450.179 154.635 449.161C154.965 448.251 155.395 447.381 155.919 446.566C155.47 445.765 155.084 444.931 154.764 444.071C154.754 444.054 154.752 444.034 154.757 444.015C154.763 443.996 154.775 443.98 154.792 443.971C154.809 443.961 154.829 443.959 154.848 443.964C154.867 443.97 154.883 443.982 154.892 443.999C155.964 445.34 156.919 446.772 157.744 448.277C158.143 448.948 158.528 449.703 158.913 450.317C159.724 450.395 160.529 450.524 161.323 450.702L163.89 451.215L166.443 451.814C167.284 452.013 168.111 452.299 168.967 452.427C169.001 452.427 169.033 452.441 169.058 452.465C169.082 452.489 169.095 452.521 169.095 452.555C169.095 452.589 169.082 452.622 169.058 452.646C169.033 452.67 169.001 452.684 168.967 452.684C168.1 452.377 167.207 452.148 166.3 451.999C165.473 451.814 164.646 451.671 163.819 451.557C162.992 451.443 162.15 451.329 161.323 451.243L159.427 451.087C159.769 451.685 160.126 452.284 160.454 452.898C160.454 452.983 160.553 453.083 160.61 453.183C161.271 453.194 161.928 453.29 162.564 453.468C163.306 453.596 163.99 453.739 164.774 453.896C166.2 454.238 167.755 454.58 169.223 454.994C172.318 455.864 175.384 456.848 178.435 457.846C178.607 457.846 178.435 458.16 178.321 458.102C175.287 457.089 172.203 456.232 169.081 455.536C167.655 455.208 166.143 454.865 164.674 454.566L162.478 454.095C161.901 454.009 161.329 453.885 160.767 453.725C162.336 456.577 163.819 459.586 165.188 462.609C168.154 469.183 170.649 475.942 173.202 482.687C173.202 482.858 173.002 482.958 172.945 482.801C170.476 476.095 167.62 469.539 164.389 463.165C163.819 461.995 163.22 460.84 162.65 459.671C162.65 459.914 162.535 460.156 162.493 460.384C162.35 461.183 162.208 461.981 162.079 462.78C161.808 464.377 161.537 465.974 161.295 467.571C160.612 470.857 160.225 474.198 160.14 477.553C160.147 477.575 160.149 477.597 160.145 477.62C160.142 477.642 160.133 477.663 160.12 477.681C160.107 477.7 160.089 477.714 160.069 477.725C160.049 477.735 160.027 477.74 160.004 477.74C159.982 477.74 159.96 477.735 159.939 477.725C159.919 477.714 159.902 477.7 159.889 477.681C159.876 477.663 159.867 477.642 159.863 477.62C159.86 477.597 159.862 477.575 159.869 477.553C160.126 475.97 160.126 474.316 160.225 472.705C160.325 471.093 160.454 469.354 160.639 467.685C160.824 466.017 161.038 464.477 161.309 462.88C161.437 462.081 161.58 461.282 161.723 460.484C161.756 459.884 161.911 459.297 162.179 458.758C161.338 457.076 160.511 455.379 159.655 453.71C158.799 452.042 158.058 450.559 157.245 449.005C156.889 448.334 156.518 447.678 156.147 446.994C155.888 447.822 155.574 448.632 155.206 449.418L154.094 452.113C153.281 454.124 152.511 456.135 151.755 458.16C150.671 461.012 149.473 463.949 148.575 466.929C149.459 463.978 150.201 460.997 151.156 458.117Z" fill="#263238"/>
<path d="M148.375 467.6C148.375 467.372 148.518 467.143 148.575 466.901C148.518 467.143 148.447 467.372 148.375 467.6Z" fill="#263238"/>
<path d="M86.7578 488.79L87.7703 510.094L90.3513 635.44H146.992L149.587 510.094L150.6 488.79H86.7578Z" fill="#37474F"/>
<path d="M86.7578 488.79L87.7703 510.094H149.587L150.6 488.79H86.7578Z" fill="#263238"/>
<path d="M82.7366 497.403H154.621V480.163H82.7366V497.403Z" fill="#37474F"/>
<path d="M142.415 635.44H132.475V644.466H142.415V635.44Z" fill="#37474F"/>
<path d="M142.415 635.44H132.475V639.946H142.415V635.44Z" fill="#263238"/>
<path d="M104.882 635.44H94.9431V644.466H104.882V635.44Z" fill="#37474F"/>
<path d="M104.882 635.44H94.9431V639.946H104.882V635.44Z" fill="#263238"/>
<path d="M322.747 268.459C320.237 268.744 309.299 267.361 301.884 277.243C294.882 286.583 292.145 315.203 290.604 321.449C289.064 327.695 280.865 328.579 278.868 335.709C277.143 341.926 281.649 344.265 282.063 348.842C282.391 352.393 278.769 357.684 281.949 362.96C284.801 367.765 290.02 366.81 293.128 368.336C296.237 369.862 298.119 377.12 303.881 379.131C309.642 381.141 314.818 375.922 317.884 375.993C320.95 376.065 324.5 385.505 334.525 384.792C344.55 384.079 347.53 375.623 351.637 373.997C355.744 372.371 366.154 375.423 370.945 370.247C375.737 365.07 376.649 358.24 378.788 355.716C380.927 353.192 385.405 353.662 388.129 347.801C390.852 341.94 385.419 338.162 384.706 333.057C384.207 329.506 387.401 326.269 385.234 320.821C382.268 313.321 373.113 314.818 369.719 307.132C367.052 301.086 361.676 274.904 345.962 268.302C335.11 263.81 322.747 268.459 322.747 268.459Z" fill="#263238"/>
<path d="M290.904 319.923C290.281 321.24 289.346 322.386 288.18 323.26L284.9 326.041C282.652 327.733 280.684 329.768 279.068 332.073C278.313 333.17 277.824 334.428 277.641 335.748C277.457 337.067 277.585 338.412 278.013 339.673C278.52 340.936 279.217 342.115 280.081 343.167C281.074 344.318 281.891 345.611 282.505 347.003C282.871 348.579 282.711 350.232 282.048 351.709C281.578 353.135 281.036 354.404 280.622 355.744C280.133 356.998 279.896 358.337 279.926 359.683C279.955 361.029 280.25 362.356 280.794 363.587C281.369 364.776 282.328 365.736 283.517 366.311C284.774 366.864 286.124 367.174 287.496 367.223C288.922 367.338 290.348 367.309 291.774 367.338C293.23 367.246 294.681 367.594 295.938 368.336C294.628 367.767 293.186 367.574 291.774 367.78C290.348 367.865 288.922 368.022 287.496 368.022C285.995 368.061 284.502 367.799 283.104 367.252C281.659 366.642 280.463 365.561 279.71 364.186C278.056 361.477 278.398 358.083 279.211 355.316C279.624 353.89 280.138 352.536 280.637 351.21C281.151 350.05 281.286 348.757 281.022 347.516C280.195 345.22 277.628 343.153 276.744 340.172C276.262 338.698 276.14 337.131 276.388 335.6C276.636 334.069 277.247 332.62 278.17 331.374C279.968 329.059 282.124 327.047 284.558 325.413L288.066 322.918C289.216 322.135 290.184 321.114 290.904 319.923Z" fill="#263238"/>
<path d="M360.45 283.204C363.131 287.624 364.728 292.558 366.881 297.207C367.922 299.546 368.906 301.913 370.104 304.123C370.665 305.211 371.344 306.235 372.129 307.175C372.29 307.396 372.488 307.589 372.714 307.745C372.918 307.929 373.149 308.083 373.398 308.201C373.94 308.501 374.51 308.758 375.081 309.014C377.477 310.006 379.819 311.124 382.097 312.365C384.504 313.639 386.454 315.633 387.672 318.069C388.27 319.327 388.535 320.716 388.442 322.105C388.282 323.439 387.871 324.731 387.23 325.912C385.863 328.065 385.013 330.506 384.749 333.042C384.699 330.441 385.297 327.868 386.489 325.556C387.014 324.44 387.324 323.236 387.401 322.005C387.409 320.815 387.115 319.642 386.546 318.597C385.321 316.475 383.515 314.748 381.341 313.62C379.085 312.458 376.772 311.411 374.41 310.483C373.812 310.198 373.213 309.913 372.628 309.585C371.986 309.219 371.42 308.735 370.96 308.159C370.109 307.115 369.381 305.976 368.792 304.765C367.622 302.452 366.594 300.071 365.712 297.635L363.131 290.376C362.374 287.937 361.479 285.542 360.45 283.204Z" fill="#263238"/>
<path d="M381.298 354.019C380.385 355.601 379.803 357.352 379.587 359.167C379.188 360.949 378.788 362.76 378.289 364.543C377.81 366.366 377.141 368.135 376.293 369.819C375.444 371.606 374.171 373.157 372.585 374.339C369.049 376.535 364.899 376.236 361.32 375.537C359.494 375.181 357.712 374.724 355.915 374.41C354.144 373.98 352.296 373.98 350.525 374.41C352.256 373.678 354.149 373.412 356.015 373.64C357.883 373.797 359.694 374.125 361.505 374.311C365.056 374.738 368.849 374.824 371.673 372.999C373.054 371.984 374.173 370.654 374.938 369.12C375.79 367.537 376.511 365.887 377.091 364.186C377.719 362.489 378.261 360.735 378.817 358.981C379.13 358.097 379.444 357.227 379.801 356.372C380.08 355.467 380.597 354.655 381.298 354.019Z" fill="#263238"/>
<path d="M304.066 372.357C316.9 401.69 334.925 441.96 344.664 446.324C369.976 457.66 421.383 467.414 439.65 463.535C446.523 462.109 447.907 407.151 440.506 408.463C426.845 410.859 371.701 406.766 367.609 404.67C364.757 403.244 341.441 376.35 322.932 359.837C296.679 336.408 299.46 361.833 304.066 372.357Z" fill="#D3766A"/>
<path d="M515.641 426.517C515.505 426.98 515.259 427.403 514.924 427.751C514.589 428.099 514.174 428.36 513.716 428.513C517.324 431.807 519.42 435.343 517.524 438.495C516.426 440.349 514.387 440.976 511.82 440.748C513.331 442.673 513.674 444.598 512.191 446.452C509.581 449.589 500.583 447.536 491.884 444.513C497.517 447.522 501.667 450.972 499.442 453.882C493.524 461.596 474.772 452.755 461.225 448.548C457.043 447.151 452.683 446.359 448.277 446.195C447.628 446.183 446.979 446.231 446.338 446.338C444.555 446.666 443.3 447.45 442.987 448.891C442.473 451.472 447.835 454.266 451.828 454.965C459.4 456.249 467.842 464.548 467.086 469.311C465.988 476.284 449.004 471.022 442.63 470.666C434.074 470.195 420.627 464.605 419.586 464.363C419.586 464.363 418.873 459.086 418.303 451.714C417.19 437.654 416.577 416.064 422.181 408.934C422.181 408.934 449.988 400.136 478.066 400.378C487.692 400.449 519.064 417.362 515.641 426.517Z" fill="#D3766A"/>
<path d="M460.684 433.19C466.102 432.74 471.552 433.56 476.598 435.586C483.585 438.253 486.751 441.09 492.925 444.684C492.959 444.703 492.985 444.734 492.995 444.772C493.006 444.809 493.001 444.849 492.982 444.883C492.964 444.918 492.932 444.943 492.894 444.953C492.857 444.964 492.817 444.959 492.783 444.94C489.845 443.229 479.792 437.982 476.755 436.641C471.757 434.212 466.235 433.061 460.684 433.29C460.684 433.29 460.598 433.19 460.684 433.19Z" fill="#263238"/>
<path d="M463.821 420.912C469.805 421.016 475.758 421.81 481.56 423.28C488.69 425.105 494.922 429.312 501.011 433.347C504.661 435.752 508.264 438.253 511.82 440.848C511.963 440.948 511.82 441.204 511.677 441.105C505.479 436.912 499.157 432.919 492.711 429.126C486.77 425.57 480.184 423.224 473.332 422.224C469.425 421.668 467.756 421.283 463.821 421.027C463.749 421.027 463.749 420.898 463.821 420.912Z" fill="#263238"/>
<path d="M466.958 409.618C473.346 409.49 479.022 409.233 485.182 411.301C493.339 414.039 500.669 419.287 503.72 421.283C507.057 423.55 510.308 425.932 513.531 428.413C513.674 428.513 513.531 428.741 513.36 428.641C506.068 423.374 498.447 418.578 490.544 414.281C487.181 412.407 483.519 411.129 479.721 410.503C475.527 409.854 471.286 409.568 467.043 409.647L466.958 409.618Z" fill="#263238"/>
<path d="M356.842 387.872L326.739 427.914C326.739 427.914 303.082 378.161 300.258 361.562C297.078 342.882 307.317 345.349 322.105 355.63C336.892 365.912 356.842 387.872 356.842 387.872Z" fill="#F0555F"/>
<path d="M315.517 365.156C314.717 369.983 312.274 374.386 308.601 377.619C307.731 378.403 306.832 379.131 305.906 379.829L305.734 379.373C308.751 377.27 311.252 374.51 313.05 371.302C315.716 366.083 315.902 359.894 315.018 354.19C314.847 353.078 314.633 351.965 314.347 350.853L314.904 351.152C316.055 355.73 316.264 360.495 315.517 365.156ZM334.967 382.781C334.696 378.959 333.114 374.154 329.178 372.671C324.401 370.888 320.28 375.252 317.969 378.888C315.289 383.081 313.235 387.63 310.711 391.922C310.782 392.079 310.839 392.236 310.925 392.407C313.649 387.815 315.773 382.838 318.74 378.389C320.157 375.894 322.379 373.953 325.042 372.885C326.232 372.523 327.503 372.522 328.694 372.883C329.884 373.243 330.941 373.949 331.73 374.91C335.096 378.803 335.01 384.778 334.083 389.526C333.013 395.122 330.451 400.325 326.668 404.585C324.432 407.071 321.79 409.159 318.854 410.759C318.854 410.888 318.953 411.002 319.01 411.13C324.425 408.143 328.817 403.597 331.616 398.082C334.076 393.371 335.232 388.089 334.967 382.781ZM331.787 409.59C331.049 410.342 330.469 411.234 330.079 412.214C329.69 413.193 329.5 414.24 329.52 415.294C329.616 416.249 329.922 417.17 330.415 417.994C330.908 418.817 331.576 419.521 332.372 420.057L332.543 420.171L332.814 419.8L332.586 419.658C331.566 418.981 330.783 418.004 330.346 416.861C329.909 415.718 329.84 414.467 330.148 413.283C330.534 412.024 331.188 410.862 332.064 409.878C332.94 408.893 334.018 408.109 335.224 407.579C337.62 406.581 340.234 406.222 342.81 406.538L343.039 406.239C338.932 405.897 334.725 406.41 331.787 409.59ZM327.01 362.347C326.958 363.672 326.484 364.946 325.656 365.983C323.174 368.35 320.722 362.375 320.322 360.664C319.888 358.594 319.844 356.461 320.194 354.375L319.766 354.09C319.642 354.841 319.561 355.598 319.524 356.357C319.35 358.718 319.766 361.085 320.736 363.245C321.449 364.771 323.203 367.708 325.299 366.781C327.395 365.855 327.438 362.66 327.695 360.849L327.823 359.994L327.424 359.68C327.281 360.564 327.153 361.462 327.01 362.347ZM352.878 383.737C350.525 384.253 348.084 384.214 345.748 383.623C344.413 383.24 343.25 382.412 342.453 381.275C341.656 380.138 341.274 378.762 341.37 377.377C341.466 375.907 341.798 374.462 342.354 373.099L341.983 372.742C340.901 374.986 340.633 377.538 341.228 379.958C342.825 384.678 348.472 384.863 352.636 384.236L353.277 384.122L352.878 383.737Z" fill="white"/>
<path d="M348.543 383.879C344.008 388.457 332.386 404.1 330.433 406.695C329.406 408.05 325.556 413.64 324.515 414.98C324.386 415.151 324.672 415.323 324.814 415.151C326.782 412.585 329.021 410.232 331.032 407.679C333.042 405.127 345.434 389.64 348.728 384.065C348.8 383.908 348.643 383.765 348.543 383.879Z" fill="#263238"/>
<path opacity="0.1" d="M346.104 402.203L326.739 427.971C326.739 427.971 303.082 378.204 300.258 361.605C298.733 352.65 300.258 348.557 303.966 347.844L346.104 402.203Z" fill="black"/>
<path d="M478.508 644.78C482.786 643.354 478.993 630.834 474.159 626.969C472.633 625.743 466.944 622.848 459.814 619.412C444.128 611.854 421.554 601.772 421.554 601.772L440.791 520.305L362.361 520.732C362.361 520.732 340.971 597.237 341.099 602.014C341.099 602.314 341.099 602.599 341.099 602.899C341.769 624.488 342.839 642.171 344.621 643.269C349.441 646.263 474.145 646.249 478.508 644.78Z" fill="#D3766A"/>
<path d="M478.508 644.78C474.145 646.206 349.427 646.206 344.678 643.254C342.91 642.142 341.826 624.474 341.17 602.884C341.17 602.599 341.17 602.285 341.17 602C341.738 598.149 342.552 594.339 343.609 590.592H424.206L421.54 601.772C421.54 601.772 444.113 611.868 459.814 619.397C466.944 622.834 472.648 625.729 474.173 626.969C478.993 630.82 482.829 643.34 478.508 644.78Z" fill="#EBEBEB"/>
<path d="M479.906 645.479C475.471 646.976 348.486 646.819 343.666 643.753C341.812 642.613 340.814 624.103 340.115 601.715C340.115 601.472 340.115 601.244 340.115 601.002L422.039 600.189V601.615C422.039 601.615 470.609 623.419 475.571 627.369C480.533 631.319 484.341 644.01 479.906 645.479Z" fill="#F0555F"/>
<path d="M478.48 640.559C457.09 640.003 370.689 639.803 349.484 640.887C349.313 640.887 349.313 641.016 349.484 641.03C370.689 642.028 457.076 641.529 478.48 640.901C478.922 640.887 478.922 640.573 478.48 640.559Z" fill="#263238"/>
<path d="M431.137 600.432C422.723 598.849 412.413 600.132 405.968 606.136C405.725 606.378 406.053 606.72 406.339 606.635C414.388 604.046 422.692 602.329 431.108 601.515C431.252 601.519 431.391 601.466 431.496 601.367C431.6 601.268 431.661 601.131 431.664 600.988C431.668 600.844 431.615 600.705 431.516 600.6C431.417 600.496 431.28 600.435 431.137 600.432Z" fill="#263238"/>
<path d="M437.212 604.096C428.798 602.528 418.488 603.797 412.057 609.8C411.8 610.029 412.128 610.385 412.413 610.299C420.463 607.707 428.767 605.986 437.183 605.166C437.311 605.149 437.428 605.087 437.514 604.991C437.6 604.895 437.649 604.772 437.653 604.643C437.656 604.515 437.614 604.389 437.533 604.289C437.452 604.188 437.338 604.12 437.212 604.096Z" fill="#263238"/>
<path d="M443.301 607.775C434.873 606.193 424.563 607.476 418.132 613.479C417.875 613.708 418.132 614.064 418.488 613.979C426.539 611.405 434.843 609.704 443.258 608.902C443.407 608.908 443.553 608.854 443.662 608.752C443.772 608.651 443.837 608.509 443.842 608.36C443.848 608.211 443.794 608.065 443.693 607.956C443.591 607.846 443.45 607.781 443.301 607.775Z" fill="#263238"/>
<path d="M442.06 582.079C438.752 577.516 432.591 579.555 429.069 582.507C423.143 587.683 418.682 594.327 416.135 601.772C416.135 601.943 416.135 602.043 416.335 602.071C416.335 602.713 416.934 603.398 417.647 603.127C424.606 600.56 432.363 598.678 438.324 594.057C441.803 591.362 445.24 586.385 442.06 582.079ZM427.344 597.095C423.95 598.435 420.513 599.604 417.176 601.073C419.729 597.323 422.096 593.487 425.019 589.993C426.39 588.282 427.882 586.672 429.483 585.173C431.992 582.892 441.917 578.043 440.42 587.284C439.65 592.389 431.45 595.483 427.401 597.095H427.344Z" fill="#263238"/>
<path d="M394.731 599.562C401.661 602.528 409.647 602.414 417.034 603.112C417.198 603.113 417.36 603.075 417.506 603.002C417.653 602.928 417.78 602.821 417.877 602.689C417.975 602.557 418.039 602.404 418.066 602.242C418.093 602.08 418.081 601.914 418.032 601.758C418.066 601.748 418.097 601.73 418.123 601.706C418.149 601.682 418.169 601.652 418.182 601.619C418.194 601.586 418.199 601.55 418.195 601.515C418.191 601.479 418.179 601.445 418.16 601.415C413.782 594.868 407.764 589.583 400.706 586.086C396.556 584.132 390.068 583.705 388.029 588.938C386.089 593.886 390.724 597.822 394.731 599.562ZM390.938 593.544C387.145 584.988 397.982 587.156 400.92 588.724C402.845 589.78 404.698 590.961 406.467 592.261C410.075 594.999 413.54 597.922 416.848 601.016C413.241 600.432 409.633 600.175 406.011 599.719C401.747 599.191 393.02 598.264 390.938 593.544Z" fill="#263238"/>
<path d="M253.229 466.017C253.229 466.017 239.169 516.854 263.696 531.912C280.066 541.894 352.422 528.062 355.502 519.078C361.305 502.18 361.32 495.991 361.32 495.991L342.782 585.558L433.932 586.628C433.932 586.628 451.044 512.476 446.637 433.875C445.012 404.799 405.925 396 378.731 410.474C352.336 424.534 305.164 463.45 305.164 463.45L253.229 466.017Z" fill="#37474F"/>
<path d="M350.439 533.11C355.345 521.089 354.96 516.369 367.223 479.065C368.863 474.074 370.247 469.011 371.701 463.963C373.156 458.915 375.024 453.539 376.179 448.206C376.179 447.949 376.649 448.063 376.578 448.32C375.152 452.926 374.239 457.689 373.027 462.352C371.815 467.015 370.617 471.493 369.334 476.027C368.792 477.995 368.207 479.949 367.651 481.917L368.378 480.705C369.448 478.865 370.517 477.025 371.63 475.214C373.94 471.478 376.721 467.97 378.76 464.077C378.786 464.03 378.83 463.995 378.883 463.981C378.935 463.966 378.991 463.972 379.038 463.999C379.085 464.025 379.12 464.07 379.135 464.122C379.149 464.174 379.143 464.23 379.116 464.277C376.806 467.999 375.152 472.134 372.984 475.956C371.929 477.81 370.831 479.621 369.705 481.432C368.745 483.13 367.648 484.747 366.425 486.266C364.756 491.97 361.163 505.902 359.366 511.634C353.662 529.673 355.573 523.798 351.366 533.481C351.124 533.98 350.225 533.638 350.439 533.11Z" fill="#263238"/>
<path d="M391.95 570.799C378.232 570.657 364.528 569.887 350.81 569.616C350.553 569.616 350.511 569.216 350.81 569.216C364.486 569.131 378.147 568.603 391.822 568.76C405.497 568.917 419.23 569.601 432.948 570.058C433.29 570.058 433.347 570.614 432.948 570.614C419.244 570.642 405.626 570.942 391.95 570.799Z" fill="#263238"/>
<path d="M358.325 566.222C359.58 560.161 361.334 554.201 362.931 548.24C364.528 542.279 366.14 536.276 367.794 530.315C371.088 518.379 374.539 506.472 377.976 494.58C379.915 487.82 382.025 481.104 384.093 474.387C384.103 474.346 384.128 474.31 384.164 474.287C384.2 474.264 384.244 474.257 384.286 474.266C384.327 474.276 384.363 474.301 384.386 474.337C384.409 474.373 384.416 474.417 384.407 474.459C378.294 498.492 371.725 522.391 364.699 546.158C362.703 552.903 360.906 559.733 358.539 566.35C358.522 566.378 358.495 566.399 358.462 566.407C358.43 566.415 358.396 566.41 358.368 566.393C358.34 566.376 358.319 566.348 358.311 566.316C358.303 566.284 358.308 566.25 358.325 566.222Z" fill="#263238"/>
<path d="M263.696 531.898C239.169 516.854 253.215 466.003 253.215 466.003L296.95 463.878L356.5 516.212L355.502 519.064C352.422 528.062 280.066 541.966 263.696 531.898Z" fill="#263238"/>
<path d="M434.345 584.66C434.06 586.015 433.889 586.714 433.889 586.714L342.739 585.644L356.999 516.711L434.345 584.66Z" fill="#263238"/>
<path d="M66.5514 654.178C65.7385 658.669 78.544 661.308 84.248 658.955C88.9534 656.277 93.4787 653.295 97.795 650.028C111.969 639.903 131.677 624.987 131.677 624.987L198.699 629.037L236.06 560.147C236.06 560.147 174.471 556.596 170.236 554.443L169.452 554.03C150.215 544.219 134.201 536.647 132.376 537.673C127.413 540.354 67.3642 649.657 66.5514 654.178Z" fill="#D3766A"/>
<path d="M181.958 556.14L146.721 625.857L131.677 624.945C131.677 624.945 111.955 639.846 97.7807 649.985C91.3352 654.563 86.0733 658.156 84.2623 658.912C78.5583 661.293 65.7243 658.627 66.5513 654.135C67.3784 649.643 127.413 540.354 132.333 537.602C134.158 536.59 150.172 544.147 169.409 553.973L170.193 554.358C171.234 554.942 175.74 555.57 181.958 556.14Z" fill="#EBEBEB"/>
<path d="M65.268 655.076C66.095 650.47 127.385 539.256 132.404 536.504C134.286 535.434 151.013 543.42 170.906 553.616L171.533 553.944L132.832 626.157L131.634 625.458C131.634 625.458 89.1392 657.543 83.2926 659.981C77.446 662.42 64.4124 659.668 65.268 655.076Z" fill="#F0555F"/>
<path d="M70.2733 656.188C81.0538 637.65 122.836 562.072 132.105 542.992C132.105 542.835 132.105 542.778 131.976 542.992C120.882 561.017 79.7276 636.966 69.9595 655.96C69.7599 656.431 70.0451 656.587 70.2733 656.188Z" fill="#263238"/>
<path d="M128.226 634.042C133.673 627.411 137.509 617.772 135.356 609.244C135.27 608.902 134.814 609.03 134.757 609.316C133.143 617.614 130.648 625.717 127.313 633.486C127.266 633.605 127.262 633.737 127.302 633.859C127.343 633.98 127.425 634.084 127.534 634.15C127.644 634.217 127.773 634.243 127.9 634.223C128.026 634.203 128.142 634.139 128.226 634.042Z" fill="#263238"/>
<path d="M122.08 637.593C127.527 630.976 131.363 621.322 129.21 612.795C129.124 612.467 128.654 612.581 128.597 612.795C126.987 621.118 124.491 629.245 121.153 637.037C121.091 637.159 121.078 637.3 121.116 637.432C121.154 637.563 121.24 637.676 121.358 637.746C121.475 637.817 121.615 637.84 121.749 637.812C121.883 637.783 122.001 637.705 122.08 637.593Z" fill="#263238"/>
<path d="M115.948 641.144C121.381 634.527 125.217 624.887 123.078 616.346C122.992 616.018 122.522 616.146 122.465 616.346C120.861 624.67 118.366 632.798 115.021 640.588C114.959 640.71 114.946 640.851 114.984 640.983C115.022 641.114 115.108 641.226 115.226 641.297C115.343 641.367 115.483 641.391 115.617 641.362C115.751 641.334 115.869 641.256 115.948 641.144Z" fill="#263238"/>
<path d="M139.035 652.495C144.625 651.796 145.794 645.365 144.91 640.901C143.244 633.194 139.574 626.062 134.272 620.224C134.251 620.198 134.224 620.176 134.193 620.161C134.162 620.146 134.128 620.139 134.094 620.139C134.06 620.139 134.026 620.146 133.995 620.161C133.964 620.176 133.937 620.198 133.916 620.224C133.774 620.139 133.614 620.089 133.449 620.077C133.284 620.065 133.118 620.092 132.965 620.156C132.813 620.22 132.677 620.318 132.57 620.444C132.462 620.57 132.386 620.72 132.347 620.88C131.249 628.21 129.167 635.91 130.351 643.368C131.035 647.746 133.744 653.108 139.035 652.495ZM132.96 632.374C133.416 628.752 134.044 625.244 134.386 621.536C136.573 625.502 138.558 629.576 140.333 633.743C141.171 635.773 141.862 637.86 142.4 639.989C143.199 643.283 142.657 654.249 135.27 648.545C131.192 645.379 132.418 636.68 132.96 632.374Z" fill="#263238"/>
<path d="M146.536 602.542C140.589 607.191 136.896 614.25 132.618 620.381C132.538 620.524 132.494 620.684 132.487 620.847C132.481 621.01 132.513 621.173 132.581 621.321C132.649 621.47 132.751 621.6 132.879 621.702C133.007 621.804 133.157 621.874 133.317 621.907C133.317 622.05 133.317 622.192 133.573 622.178C141.425 621.508 148.963 618.789 155.434 614.292C159.156 611.597 162.649 606.121 159.027 601.801C155.662 597.708 150.001 599.833 146.536 602.542ZM153.666 602.114C162.992 602.913 155.876 611.355 153.052 613.237C151.223 614.413 149.318 615.466 147.349 616.389C143.207 618.23 138.976 619.863 134.671 621.28C136.924 618.428 138.949 615.362 141.031 612.396C143.47 608.902 148.489 601.658 153.623 602.114H153.666Z" fill="#263238"/>
<path d="M310.868 453.568C312.199 465.969 312.904 478.429 312.978 490.9C312.978 490.9 399.565 536.262 403.558 579.398C404.984 594.67 402.916 623.29 372.956 636.338C339.488 650.912 154.521 640.873 154.521 640.873L177.637 555.712H259.218C259.218 555.712 201.651 564.867 195.39 526.508C189.587 490.858 211.476 453.525 211.476 453.525L310.868 453.568Z" fill="#37474F"/>
<path d="M173.601 636.709C175.64 626.898 177.608 617.044 179.89 607.276C182.171 597.508 184.596 587.754 187.162 578.058C187.89 575.32 188.588 572.582 189.387 569.844C189.744 568.546 190.1 567.249 190.471 565.951C190.803 564.624 191.203 563.315 191.669 562.029C191.669 561.887 191.883 562.029 191.868 562.101C191.536 564.635 191.06 567.149 190.442 569.63C189.929 572.011 189.43 574.379 188.916 576.76C187.852 581.627 186.763 586.49 185.651 591.348C183.412 601.073 180.931 610.727 178.407 620.367C176.962 625.862 175.536 631.342 174.129 636.809C173.972 637.108 173.53 637.037 173.601 636.709Z" fill="#263238"/>
<path d="M231.012 555.741C237.629 555.27 244.245 555.056 250.876 554.928C257.507 554.8 264.124 554.928 270.755 554.928C277.385 554.928 284.002 555.413 290.604 555.997C297.222 556.497 303.797 557.45 310.283 558.849L305.364 558.222L300.415 557.751C297.121 557.466 293.842 557.195 290.533 557.053C283.931 556.668 277.328 556.397 270.712 556.283C264.095 556.169 257.493 556.012 250.876 555.926L231.012 555.741Z" fill="#263238"/>
<path d="M229.586 460.598C226.63 468.181 224.064 475.911 221.9 483.756C219.678 491.582 218.095 499.574 217.165 507.656C216.724 511.671 216.638 515.718 216.909 519.748C217.116 523.737 218.114 527.644 219.846 531.242C220.739 532.977 221.937 534.537 223.383 535.848C224.871 537.156 226.497 538.298 228.231 539.256C231.764 541.161 235.5 542.662 239.368 543.734C247.197 545.799 255.18 547.23 263.24 548.012C271.311 548.953 279.425 549.609 287.482 550.436C295.64 551.126 303.74 552.384 311.724 554.201C315.776 555.114 319.693 556.553 323.374 558.479C327.013 560.463 330.414 562.855 333.513 565.609L335.352 567.234H332.871L266.904 566.336L234.007 566.122C223.012 566.122 212.018 566.051 201.023 566.35C212.003 565.708 223.012 565.537 234.007 565.352C245.001 565.167 255.995 565.124 267.004 565.095H299.988L332.985 565.395L332.343 567.006C329.355 564.35 326.073 562.044 322.561 560.133C319.018 558.28 315.244 556.909 311.339 556.054C303.423 554.322 295.408 553.084 287.339 552.347C279.254 551.491 271.125 550.792 263.011 549.809C254.856 548.96 246.782 547.453 238.869 545.302C234.893 544.181 231.063 542.592 227.461 540.568C225.647 539.519 223.946 538.287 222.385 536.889C220.822 535.441 219.537 533.721 218.591 531.812C216.823 528.026 215.829 523.924 215.668 519.748C215.442 515.642 215.58 511.524 216.082 507.442C217.131 499.331 218.877 491.325 221.301 483.514C223.632 475.726 226.398 468.076 229.586 460.598Z" fill="#263238"/>
<path d="M301.456 452.669C301.456 452.628 301.473 452.588 301.502 452.558C301.532 452.529 301.572 452.512 301.613 452.512C301.655 452.512 301.695 452.529 301.724 452.558C301.754 452.588 301.77 452.628 301.77 452.669C302.112 455.621 303.196 472.462 303.667 478.808C303.838 481.075 303.667 485.111 307.018 485.097C309.627 485.097 310.925 482.245 311.21 480.049C311.567 477.353 310.126 457.789 309.784 451.286C309.784 451.101 310.084 451.087 310.112 451.286C311.31 457.803 313.634 478.537 312.964 481.446C312.801 482.591 312.344 483.674 311.636 484.589C310.929 485.504 309.996 486.22 308.929 486.665C309.116 489.226 309.078 491.798 308.814 494.351C308.814 494.565 308.13 494.622 308.087 494.451C308.201 492.925 307.388 487.022 307.403 486.993C306.597 487.059 305.789 486.917 305.054 486.58C304.32 486.243 303.685 485.722 303.21 485.068C300.886 481.988 301.399 460.17 301.456 452.669Z" fill="#263238"/>
<path d="M292.102 502.636C294.455 501.011 296.893 499.528 299.36 498.073C301.827 496.619 304.308 495.221 306.832 493.895C309.356 492.569 311.909 491.271 314.504 490.088C317.1 488.904 319.723 487.735 322.419 486.779C321.192 487.535 319.937 488.205 318.711 488.933L314.975 491.015C312.494 492.441 309.97 493.738 307.46 495.079C304.95 496.419 302.412 497.731 299.845 498.972L296.009 500.854C294.697 501.439 293.414 502.066 292.102 502.636Z" fill="#263238"/>
<path d="M230.655 489.118C235.247 489.118 249.564 489.945 256.395 484.17C261.913 479.507 264.338 463.578 265.293 459.215C265.293 458.987 265.664 459.072 265.664 459.215C265.771 464.161 265.147 469.096 263.81 473.86C262.698 477.895 261.2 482.416 257.949 485.268C254.698 488.12 249.864 489.289 245.472 489.831C240.54 490.402 235.555 490.33 230.641 489.617C230.575 489.615 230.512 489.587 230.467 489.539C230.421 489.491 230.397 489.427 230.399 489.36C230.401 489.294 230.429 489.232 230.477 489.186C230.525 489.141 230.589 489.116 230.655 489.118Z" fill="#263238"/>
<path d="M323.702 436.199L316.772 471.321L204.289 459.799C204.289 459.799 245.415 374.539 280.366 347.915C294.269 337.335 305.677 342.055 313.734 352.079C315.574 354.375 336.137 397.711 336.721 412.585C337.121 424.748 323.702 436.199 323.702 436.199Z" fill="#F0555F"/>
<path d="M214.827 439.208C215.062 442.147 215.034 445.101 214.741 448.035C214.142 452.755 211.789 458.587 206.585 459.671C205.812 459.838 205.016 459.872 204.232 459.771L204.331 459.557C206.033 459.767 207.752 459.335 209.151 458.345C214.428 454.794 214.855 447.493 214.684 441.775C214.684 441.076 214.684 440.349 214.584 439.664L214.827 439.208ZM227.561 416.52L227.347 416.877C231.768 417.604 234.748 422.139 235.176 426.531C235.789 432.677 232.124 438.324 228.959 443.272C225.935 447.964 222.827 452.898 222.627 458.644C222.589 459.664 222.637 460.685 222.77 461.696H223.212C222.998 460.101 222.998 458.485 223.212 456.89C223.996 450.958 227.775 446.039 230.827 441.09C233.679 436.484 236.445 431.023 235.433 425.404C234.691 421.369 231.853 417.276 227.561 416.52ZM259.104 437.525C256.252 434.131 251.461 432.149 247.525 434.973C244.231 437.354 243.489 441.86 243.703 445.653C244.031 451.215 246.912 456.22 247.511 461.739C247.599 462.572 247.622 463.411 247.582 464.249H248.067C248.366 459.201 245.942 454.267 244.773 449.489C243.76 445.354 243.589 439.964 246.47 436.499C247.245 435.57 248.247 434.857 249.379 434.43C250.511 434.002 251.734 433.875 252.93 434.06C255.563 434.64 257.869 436.22 259.361 438.466C263.24 443.814 261.985 450.545 261.257 456.662C260.822 459.62 260.793 462.623 261.172 465.589H261.585C260.915 461.468 261.585 457.218 262.099 453.012C262.534 449.985 262.534 446.912 262.099 443.885C261.659 441.545 260.628 439.356 259.104 437.525ZM276.473 436.884C273.56 433.241 269.695 430.477 265.307 428.898C260.06 427.058 254.37 426.816 249.208 424.706C246.597 423.679 244.284 422.017 242.477 419.871C240.699 417.629 239.363 415.069 238.541 412.328C237.332 408.729 236.786 404.941 236.93 401.148C236.773 401.376 236.63 401.604 236.488 401.847C236.438 404.126 236.648 406.403 237.115 408.635C238.128 413.768 240.267 419.059 244.431 422.438C248.595 425.818 253.999 426.645 259.061 427.686C261.782 428.179 264.444 428.953 267.004 429.996C269.249 430.999 271.327 432.341 273.165 433.975C280.48 440.477 283.902 450.83 283.261 460.455C283.138 462.94 282.658 465.394 281.835 467.742H282.248C282.68 466.59 283.01 465.402 283.232 464.191C284.105 459.421 283.953 454.519 282.788 449.811C281.623 445.103 279.47 440.697 276.473 436.884ZM269.913 395.401C268.57 393.141 267.018 391.012 265.279 389.041C261.899 385.077 258.02 381.098 256.723 375.908C256.49 375.022 256.356 374.114 256.323 373.198C256.197 373.344 256.078 373.497 255.967 373.655V373.726C256.395 378.646 259.418 382.724 262.498 386.375C264.224 388.414 266.02 390.396 267.603 392.549C269.411 394.984 270.812 397.695 271.753 400.578C273.307 405.412 274.191 412.228 270.84 416.563C270.076 417.608 268.98 418.362 267.731 418.702C266.482 419.041 265.154 418.946 263.967 418.431C262.72 417.834 261.62 416.968 260.748 415.895C259.875 414.823 259.25 413.57 258.919 412.228C257.35 406.324 259.874 400.221 258.548 394.26C258.112 391.898 256.855 389.766 254.997 388.243C253.373 387.059 251.403 386.442 249.393 386.489C248.361 386.494 247.335 386.638 246.341 386.917L245.956 387.473C247.143 387.079 248.386 386.887 249.636 386.902C250.886 386.888 252.124 387.158 253.255 387.692C254.386 388.226 255.382 389.009 256.167 389.982C257.747 392.261 258.561 394.983 258.491 397.754C258.634 403.458 256.423 409.946 259.646 415.137C260.813 417.156 262.73 418.632 264.979 419.244C266.002 419.47 267.065 419.425 268.065 419.115C269.066 418.805 269.968 418.24 270.683 417.476C274.049 413.982 273.878 408.192 273.05 403.786C272.462 400.841 271.402 398.01 269.913 395.401ZM288.779 371.387C288.252 364.913 286.084 358.668 286.07 352.136C286.037 349.195 286.625 346.28 287.795 343.58L287.211 343.823C286.332 345.946 285.817 348.202 285.685 350.497C285.257 356.999 287.367 363.331 288.152 369.662C288.601 372.635 288.601 375.659 288.152 378.632C287.905 380.106 287.474 381.543 286.868 382.91C286.326 384.136 285.528 385.918 284.187 386.446C282.847 386.974 281.435 385.861 280.68 384.735C279.899 383.441 279.466 381.967 279.425 380.457C279.182 377.12 279.738 373.797 279.795 370.475C279.881 365.855 278.626 360.35 273.949 358.325C272.658 357.767 271.262 357.495 269.856 357.527L269.471 357.926C270.637 357.822 271.812 357.958 272.923 358.326C274.034 358.694 275.058 359.286 275.931 360.065C280.423 364.129 279.339 371.002 279.011 376.35C278.854 379.116 278.669 382.353 280.166 384.82C281.122 386.375 283.018 387.858 284.843 386.674C285.813 385.892 286.56 384.869 287.011 383.708C287.601 382.519 288.051 381.265 288.351 379.972C288.943 377.151 289.088 374.254 288.779 371.387ZM300.087 403.558C304.75 401.619 307.945 397.241 310.511 393.063C313.435 388.271 315.617 383.081 318.739 378.346C319.981 376.275 321.727 374.553 323.816 373.341L323.702 373.084C321.353 374.478 319.392 376.44 317.998 378.788C314.989 383.494 312.765 388.671 309.784 393.405C307.018 397.783 303.438 402.36 298.191 403.686C297.08 404.064 295.89 404.149 294.736 403.935C293.583 403.72 292.504 403.212 291.603 402.46C289.564 400.449 289.635 397.312 290.405 394.745C291.631 390.667 294.897 387.701 298.205 385.22C301.513 382.738 305.406 380.414 308.629 377.519C312.303 374.287 314.746 369.884 315.545 365.056C316.05 361.997 316.127 358.882 315.773 355.801C315.531 355.316 315.317 354.889 315.103 354.489C315.887 360.065 315.674 366.111 313.078 371.202C310.925 375.409 307.16 378.332 303.381 381.013C299.779 383.241 296.432 385.856 293.399 388.813C290.69 391.751 288.537 396.129 289.735 400.221C291.104 404.984 296.28 405.184 300.087 403.558ZM332.415 395.187C331.086 398.62 329.154 401.788 326.711 404.542C322.814 408.868 317.763 411.989 312.151 413.54C309.411 414.296 306.581 414.68 303.738 414.681C300.616 414.494 297.51 414.098 294.44 413.497C291.839 413.035 289.158 413.357 286.74 414.424C284.57 415.459 282.758 417.117 281.535 419.187C280.818 420.342 280.36 421.639 280.192 422.988C280.025 424.337 280.152 425.706 280.565 427.001C281.263 428.885 282.671 430.421 284.487 431.279C286.522 432.157 288.744 432.511 290.951 432.309C293.158 432.107 295.279 431.356 297.121 430.124C299.456 428.614 301.639 426.88 303.638 424.948C305.82 422.966 308.059 420.556 310.854 419.472C315.845 417.533 320.137 422.124 320.75 426.802C321.449 432.206 317.128 436.556 312.722 438.894C308.315 441.233 302.939 441.746 298.234 443.785C294.112 445.582 290.932 448.99 290.961 453.767C291.047 463.664 302.968 472.177 312.223 468.027C314.667 466.869 316.785 465.119 318.383 462.937L318.568 461.967C316.002 465.489 312.479 468.37 307.959 468.641C305.115 468.688 302.307 467.998 299.808 466.639C297.309 465.28 295.205 463.297 293.699 460.883C291.018 456.605 290.348 450.901 294.084 447.079C297.592 443.457 303.096 442.801 307.716 441.375C312.337 439.949 316.985 437.625 319.595 433.461C320.754 431.681 321.323 429.58 321.22 427.458C321.118 425.336 320.35 423.3 319.025 421.64C317.884 420.118 316.225 419.068 314.362 418.688C313.146 418.582 311.922 418.732 310.768 419.128C309.614 419.523 308.555 420.155 307.659 420.984C303.196 424.449 299.517 429.183 294.084 431.222C290.02 432.748 284.102 432.235 281.635 428.242C278.241 422.838 283.061 416.121 288.294 414.367C291.389 413.34 294.555 413.982 297.677 414.567C300.401 415.094 303.179 415.281 305.948 415.123C311.324 414.757 316.513 413.005 321.011 410.039C325.509 407.073 329.162 402.993 331.616 398.196C331.973 397.483 332.315 396.77 332.629 396L332.415 395.187ZM335.267 407.565L335.937 407.28L335.851 406.881C334.303 407.415 332.915 408.332 331.816 409.547C331.078 410.3 330.497 411.191 330.108 412.171C329.719 413.15 329.528 414.197 329.549 415.251C329.645 416.206 329.95 417.128 330.443 417.951C330.936 418.774 331.605 419.478 332.401 420.014C333.161 420.532 333.979 420.958 334.839 421.283L335.024 420.855C334.169 420.551 333.359 420.134 332.614 419.615C331.595 418.938 330.812 417.961 330.375 416.818C329.938 415.675 329.868 414.425 330.176 413.241C330.57 411.995 331.225 410.849 332.098 409.877C332.971 408.906 334.042 408.132 335.238 407.608L335.267 407.565Z" fill="white"/>
<path d="M308.658 427.871C302.956 427.439 297.227 427.544 291.546 428.185C288.694 428.541 285.842 429.069 282.99 429.682C281.564 429.982 280.138 430.224 278.712 430.452C277.258 430.75 275.767 430.822 274.291 430.666C274.163 430.666 274.106 430.894 274.291 430.923C275.632 431.272 277.002 431.501 278.384 431.607C279.736 431.666 281.092 431.604 282.433 431.422C285.285 431.08 288.137 430.581 291.089 430.21C296.907 429.454 302.711 428.698 308.515 428.484C308.871 428.47 308.914 427.9 308.658 427.871Z" fill="#263238"/>
<path d="M321.021 436.841C316.611 435.345 312.097 434.173 307.517 433.333C305.223 432.939 302.91 432.672 300.586 432.534C299.474 432.463 298.348 432.406 297.235 432.377C296.123 432.349 294.754 432.52 293.528 432.463C293.399 432.463 293.342 432.705 293.528 432.72C294.669 432.82 295.795 433.162 296.936 433.347L300.373 433.889C302.668 434.26 304.95 434.659 307.246 435.001C311.852 435.686 316.415 436.427 320.978 437.326C321.178 437.368 321.249 436.912 321.021 436.841Z" fill="#263238"/>
<path d="M297.178 348.928C296.936 351.195 302.241 368.279 311.98 371.145C315.16 372.072 321.007 354.974 321.007 354.974L321.72 353.805L331.787 337.506L315.645 317L313.249 314.148C313.249 314.148 310.797 318.797 307.788 324.6L307.36 325.427C307.175 325.755 307.004 326.055 306.847 326.369C306.39 327.224 305.92 328.108 305.421 329.007C305.078 329.677 304.75 330.333 304.408 331.046C304.066 331.759 303.738 332.472 303.381 333.185C300.946 338.28 298.873 343.541 297.178 348.928Z" fill="#D3766A"/>
<path d="M307.788 324.657C307.854 330.236 309.135 335.733 311.541 340.767C313.947 345.8 317.42 350.25 321.72 353.805L331.787 337.506L315.645 317L313.249 314.148C313.249 314.148 310.868 318.854 307.788 324.657Z" fill="#263238"/>
<path d="M366.368 319.424C357.099 351.751 336.693 349.855 329.72 347.844C323.402 346.033 302.098 339.031 307.959 305.92C313.82 272.808 331.787 266.904 346.461 270.27C361.134 273.635 375.623 287.039 366.368 319.424Z" fill="#D3766A"/>
<path d="M361.89 309.642C361.186 309.32 360.5 308.958 359.837 308.558C359.075 308.291 358.417 307.793 357.954 307.132C357.856 306.883 357.842 306.609 357.915 306.352C357.987 306.094 358.141 305.868 358.354 305.706C358.823 305.462 359.349 305.346 359.877 305.371C360.406 305.396 360.918 305.561 361.363 305.848C362.361 306.265 363.169 307.037 363.63 308.016C363.722 308.255 363.741 308.516 363.684 308.765C363.627 309.015 363.496 309.241 363.309 309.416C363.122 309.591 362.887 309.706 362.634 309.746C362.381 309.786 362.122 309.75 361.89 309.642Z" fill="#263238"/>
<path d="M340.514 303.738C341.286 303.833 342.062 303.885 342.839 303.895C343.647 304.066 344.489 303.966 345.235 303.61C345.451 303.451 345.609 303.224 345.681 302.966C345.753 302.707 345.737 302.432 345.634 302.184C345.363 301.734 344.977 301.365 344.516 301.114C344.054 300.864 343.535 300.741 343.01 300.758C341.937 300.605 340.847 300.865 339.958 301.485C339.77 301.638 339.629 301.842 339.552 302.073C339.474 302.304 339.464 302.551 339.523 302.788C339.581 303.024 339.705 303.238 339.881 303.407C340.056 303.575 340.276 303.69 340.514 303.738Z" fill="#263238"/>
<path d="M342.497 313.164C342.497 313.078 342.297 313.164 342.268 313.321C341.769 315.545 340.842 318.027 338.618 318.226C338.547 318.226 338.518 318.354 338.618 318.369C341.142 318.654 342.368 315.36 342.497 313.164Z" fill="#263238"/>
<path d="M341.113 310.326C337.634 309.128 335.409 316.201 338.718 317.313C342.026 318.426 344.051 311.338 341.113 310.326Z" fill="#263238"/>
<path d="M339.616 310.283C338.875 310.497 338.062 311.025 337.292 310.868C336.522 310.711 335.98 309.756 335.638 308.872C335.638 308.786 335.509 308.872 335.481 308.872C335.174 309.488 335.114 310.199 335.313 310.859C335.511 311.518 335.954 312.077 336.55 312.422C337.819 313.007 339.131 312.094 339.887 310.825C340.015 310.64 339.916 310.198 339.616 310.283Z" fill="#263238"/>
<path d="M355.331 316.486C355.331 316.401 355.473 316.643 355.43 316.729C354.689 318.896 354.19 321.506 355.944 322.846C355.944 322.846 355.944 322.989 355.944 322.96C353.648 321.862 354.275 318.411 355.331 316.486Z" fill="#263238"/>
<path d="M357.997 314.804C361.591 315.631 359.666 322.775 356.343 322.005C353.021 321.235 354.974 314.119 357.997 314.804Z" fill="#263238"/>
<path d="M359.352 315.674C359.808 316.215 360.193 317.1 360.849 317.271C361.505 317.442 362.404 316.914 363.102 316.315C363.174 316.315 363.216 316.315 363.188 316.415C362.86 317.841 362.033 319.096 360.65 318.996C359.266 318.896 358.824 317.57 358.867 316.144C358.867 315.802 359.167 315.46 359.352 315.674Z" fill="#263238"/>
<path d="M337.962 330.946C338.304 331.631 338.575 332.515 339.388 332.857C340.2 333.125 341.061 333.218 341.912 333.128C341.931 333.128 341.949 333.135 341.962 333.149C341.976 333.162 341.983 333.18 341.983 333.199C341.983 333.218 341.976 333.236 341.962 333.25C341.949 333.263 341.931 333.27 341.912 333.27C341.456 333.59 340.921 333.779 340.366 333.817C339.81 333.855 339.255 333.74 338.76 333.484C338.363 333.212 338.054 332.829 337.871 332.383C337.689 331.937 337.641 331.447 337.734 330.975C337.677 330.832 337.862 330.832 337.962 330.946Z" fill="#263238"/>
<path d="M349.37 325.67C349.37 325.67 348.871 329.078 348.414 330.632C348.414 330.775 347.987 330.732 347.445 330.632C346.042 330.49 344.707 329.963 343.584 329.11C342.462 328.257 341.597 327.111 341.085 325.798C341.085 325.627 341.27 325.513 341.384 325.656C342.963 327.583 345.125 328.944 347.545 329.534C347.773 329.135 348.201 323.659 348.457 323.702C349.628 324.158 350.732 324.772 351.737 325.527C352.992 318.397 353.092 311.267 354.432 304.137C354.432 303.881 354.86 303.909 354.86 304.137C355.302 311.724 354.047 319.909 352.949 327.253C352.807 328.194 349.955 326.112 349.37 325.67Z" fill="#263238"/>
<path d="M346.333 329.634C345.205 330.459 343.884 330.98 342.497 331.146C341.742 331.209 340.985 331.04 340.329 330.661C338.903 329.805 339.274 328.365 339.916 327.238C340.257 326.64 340.669 326.085 341.142 325.584C342.397 327.453 344.215 328.871 346.333 329.634Z" fill="#263238"/>
<path d="M342.497 331.146C341.742 331.209 340.985 331.04 340.329 330.661C338.903 329.805 339.274 328.365 339.916 327.238C340.721 327.507 341.413 328.038 341.881 328.746C342.349 329.455 342.566 330.299 342.497 331.146Z" fill="#FF9CBD"/>
<path d="M306.504 311.438C312.051 313.15 316.016 301.599 316.016 301.599C316.016 301.599 327.424 304.223 334.982 288.58C333.545 293.449 330.715 297.792 326.839 301.071C326.839 301.071 347.545 303.481 359.88 288.48C359.88 288.48 354.546 296.337 350.668 298.676C350.668 298.676 359.68 298.234 365.37 292.273C365.37 292.273 366.71 302.84 368.835 306.148C368.835 306.148 375.965 270.569 342.325 266.947C342.325 266.947 321.492 263.682 310.454 278.27C299.417 292.858 306.504 311.438 306.504 311.438Z" fill="#263238"/>
<path d="M319.966 303.567L312.479 294.697L310.297 296.879L318.697 304.765L319.966 303.567Z" fill="#F0555F"/>
<path d="M318.026 305.82L309.1 298.419L307.317 300.943L317 307.217L318.026 305.82Z" fill="#F0555F"/>
<path d="M312.394 309.813C312.394 309.813 309.285 297.392 303.909 298.134C298.533 298.875 298.205 315.06 302.711 318.996C303.252 319.54 303.897 319.969 304.607 320.258C305.317 320.547 306.079 320.69 306.845 320.678C307.612 320.666 308.369 320.499 309.069 320.188C309.77 319.877 310.401 319.428 310.925 318.868L312.394 309.813Z" fill="#D3766A"/>
<path d="M303.938 302.768C303.922 302.766 303.905 302.768 303.891 302.775C303.876 302.782 303.863 302.792 303.854 302.806C303.846 302.819 303.841 302.835 303.84 302.851C303.84 302.867 303.844 302.883 303.852 302.897C306.946 305.749 307.574 309.927 307.588 313.962C307.516 313.513 307.348 313.084 307.094 312.706C306.839 312.328 306.506 312.01 306.117 311.774C305.727 311.538 305.291 311.389 304.838 311.339C304.386 311.288 303.927 311.337 303.496 311.481C303.381 311.481 303.41 311.695 303.496 311.709C304.219 311.751 304.912 312.017 305.479 312.469C306.046 312.921 306.459 313.537 306.661 314.233C306.991 315.396 307.192 316.592 307.26 317.798C307.26 318.183 307.973 318.24 307.987 317.798V317.699C309.898 313.078 308.772 305.164 303.938 302.768Z" fill="#263238"/>
<path d="M270.027 376.535C264.181 408.791 250.063 475.414 263.026 495.963C280.024 522.928 338.96 542.707 354.375 548.525C361.106 551.063 380.585 507.385 377.034 500.569C373.484 493.752 312.536 466.63 308.458 462.58C304.38 458.53 300.601 405.283 295.995 377.847C290.177 343.224 274.961 349.227 270.027 376.535Z" fill="#D3766A"/>
<path d="M381.84 507.057C379.088 504.633 380.414 503.164 386.845 503.549C393.276 503.934 418.759 510.893 420.442 501.824C422.124 492.754 386.132 483.414 375.266 483.628C364.4 483.842 346.889 487.991 346.889 487.991C353.52 491.214 368.892 500.526 381.84 507.057Z" fill="#D3766A"/>
<path d="M328.664 539.199C347.702 547.584 370.888 559.163 394.26 556.454C396.858 556.218 399.3 555.113 401.191 553.316C411.658 552.276 414.31 547.028 414.31 547.028C423.764 543.064 425.718 537.317 425.718 537.317C425.718 537.317 437.996 535.962 438.409 528.404C438.894 519.934 421.554 523.499 410.816 519.62C386.232 510.75 353.776 491.257 346.917 487.991L328.664 539.199Z" fill="#D3766A"/>
<path d="M378.489 528.433C385.652 531.111 392.989 533.298 400.449 534.978C408.777 536.59 417.062 536.746 425.476 537.117C425.502 537.117 425.528 537.122 425.552 537.132C425.576 537.142 425.598 537.157 425.617 537.176C425.635 537.194 425.65 537.216 425.66 537.24C425.67 537.265 425.675 537.291 425.675 537.317C425.675 537.343 425.67 537.369 425.66 537.393C425.65 537.417 425.635 537.439 425.617 537.458C425.598 537.476 425.576 537.491 425.552 537.501C425.528 537.511 425.502 537.516 425.476 537.516C410.118 539.27 392.15 535.648 378.346 528.761C378.033 528.604 378.118 528.304 378.489 528.433Z" fill="#263238"/>
<path d="M370.974 542.493C378.189 544.504 390.938 547.955 414.239 546.771C414.324 546.771 414.353 546.9 414.239 546.914C399.677 549.609 384.653 548.202 370.846 542.85C370.432 542.679 370.489 542.365 370.974 542.493Z" fill="#263238"/>
<path d="M367.067 550.137C379.487 553.074 387.687 553.359 401.077 553.259C401.148 553.259 401.176 553.402 401.077 553.402C385.876 555.113 380.172 554.015 366.853 550.55C366.482 550.436 366.582 550.022 367.067 550.137Z" fill="#263238"/>
<path d="M303.838 415.408L255.853 429.782C255.853 429.782 266.334 375.694 273.906 360.664C282.462 343.737 289.221 351.794 295.011 368.849C300.8 385.904 303.838 415.408 303.838 415.408Z" fill="#F0555F"/>
<path d="M256.452 426.745C258.32 427.13 260.188 427.486 262.027 427.928L261.243 428.171L259.061 427.686L256.38 427.144C256.395 427.016 256.423 426.887 256.452 426.745ZM269.913 395.373C268.57 393.113 267.018 390.984 265.279 389.013L264.979 388.671L264.851 389.141C265.792 390.239 266.705 391.351 267.56 392.521C269.368 394.955 270.769 397.667 271.71 400.549C273.264 405.383 274.148 412.2 270.797 416.535C270.034 417.58 268.937 418.334 267.688 418.673C266.439 419.013 265.112 418.917 263.924 418.403C261.757 417.386 260.077 415.557 259.247 413.312L259.076 414.139C259.232 414.472 259.408 414.796 259.603 415.109C260.77 417.127 262.687 418.603 264.936 419.215C265.959 419.441 267.023 419.397 268.023 419.087C269.023 418.777 269.925 418.212 270.64 417.447C274.006 413.953 273.835 408.164 273.008 403.758C272.429 400.825 271.385 398.003 269.913 395.401V395.373ZM288.779 371.359C288.266 364.97 286.141 358.81 286.07 352.379C285.936 352.26 285.788 352.159 285.628 352.079C285.628 357.997 287.439 363.758 288.152 369.591C288.601 372.564 288.601 375.587 288.152 378.56C287.905 380.034 287.474 381.472 286.868 382.838C286.326 384.065 285.528 385.847 284.187 386.375C282.847 386.902 281.435 385.79 280.68 384.663C279.899 383.37 279.466 381.896 279.425 380.385C279.182 377.049 279.738 373.726 279.795 370.403C279.881 366.125 278.811 361.134 274.99 358.81C274.918 358.924 274.861 359.038 274.804 359.152C275.205 359.398 275.582 359.679 275.931 359.994C280.423 364.058 279.339 370.931 279.011 376.279C278.854 379.045 278.669 382.282 280.166 384.749C281.122 386.303 283.018 387.786 284.843 386.603C285.813 385.82 286.56 384.798 287.011 383.637C287.601 382.448 288.051 381.194 288.351 379.901C288.936 377.102 289.08 374.23 288.779 371.387V371.359ZM300.087 403.558C300.821 403.252 301.527 402.885 302.198 402.46C302.198 402.303 302.198 402.146 302.198 401.989C300.983 402.791 299.644 403.384 298.234 403.743C297.122 404.121 295.933 404.206 294.779 403.992C293.625 403.777 292.546 403.269 291.645 402.517C289.606 400.506 289.678 397.369 290.448 394.802C291.674 390.724 294.94 387.758 298.248 385.277L299.175 384.606C299.175 384.435 299.175 384.264 299.075 384.107C297.039 385.486 295.16 387.083 293.471 388.87C290.761 391.808 288.608 396.186 289.806 400.278C291.104 404.984 296.28 405.184 300.087 403.558ZM303.752 414.609C300.63 414.422 297.524 414.027 294.455 413.426C291.853 412.963 289.172 413.286 286.754 414.353C284.584 415.388 282.772 417.046 281.549 419.116C280.94 420.136 280.515 421.256 280.295 422.424L280.68 422.31C281.2 420.452 282.159 418.746 283.477 417.336C284.795 415.926 286.433 414.854 288.252 414.21C291.346 413.183 294.512 413.825 297.635 414.41C299.676 414.792 301.747 414.997 303.824 415.023C303.738 414.966 303.738 414.823 303.738 414.652L303.752 414.609Z" fill="white"/>
<path d="M299.545 407.223C293.186 408.235 274.548 413.925 271.453 414.838C269.828 415.322 263.411 417.518 261.785 417.989C261.571 417.989 261.699 418.36 261.913 418.303C265.022 417.404 268.23 416.877 271.353 415.978C274.476 415.08 293.656 410.003 299.617 407.422C299.629 407.406 299.637 407.386 299.64 407.365C299.643 407.345 299.641 407.323 299.634 407.304C299.627 407.284 299.615 407.266 299.6 407.252C299.584 407.238 299.566 407.228 299.545 407.223Z" fill="#263238"/>
<path d="M266.99 381.697C266.99 381.469 266.719 381.426 266.648 381.697C265.222 386.161 263.953 390.667 262.726 395.187C262.806 392.736 263.106 390.297 263.625 387.9C263.63 387.887 263.633 387.873 263.631 387.859C263.63 387.845 263.626 387.831 263.618 387.819C263.61 387.808 263.599 387.798 263.587 387.791C263.574 387.784 263.56 387.781 263.546 387.781C263.532 387.781 263.518 387.784 263.505 387.791C263.493 387.798 263.482 387.808 263.475 387.819C263.467 387.831 263.462 387.845 263.461 387.859C263.46 387.873 263.462 387.887 263.468 387.9C262.756 390.652 262.41 393.486 262.441 396.328C261.595 399.475 260.782 402.636 260.003 405.811C258.035 413.882 255.953 421.939 254.441 430.053C254.422 430.152 254.43 430.254 254.464 430.349C254.498 430.444 254.556 430.528 254.633 430.594C254.709 430.659 254.802 430.703 254.901 430.72C255 430.738 255.102 430.729 255.197 430.695C256.851 430.139 258.477 429.554 260.088 428.884C260.259 428.812 260.216 428.527 260.088 428.556C258.662 428.798 257.236 429.112 255.81 429.426C257.935 421.682 259.646 413.839 261.514 406.039C263.468 397.94 265.364 389.84 266.99 381.697Z" fill="#263238"/>
<path d="M301.685 394.004C301.585 391.366 301.485 388.728 301.299 386.089H301.214C301.214 388.043 301.214 389.982 301.314 391.922C300.587 388.114 299.788 384.307 298.818 380.514C298.818 380.514 298.718 380.514 298.733 380.514C299.346 386.36 300.273 392.164 301.029 397.997C301.784 403.829 302.611 409.405 303.453 415.109C302.412 415.608 301.357 416.078 300.301 416.535C300.269 416.556 300.244 416.587 300.232 416.624C300.219 416.661 300.22 416.701 300.233 416.737C300.246 416.774 300.272 416.804 300.305 416.825C300.338 416.845 300.377 416.853 300.415 416.848C301.642 416.535 302.868 416.235 304.109 415.993C304.255 415.972 304.388 415.898 304.483 415.784C304.577 415.671 304.627 415.527 304.622 415.38C303.923 408.321 302.968 401.134 301.685 394.004Z" fill="#263238"/>
<path d="M455.935 222.898C455.151 230.43 452.288 237.596 447.668 243.596C443.047 249.596 436.849 254.193 429.767 256.875C422.685 259.556 414.997 260.217 407.561 258.782C400.125 257.348 393.235 253.875 387.658 248.751L367.224 251.746L377.448 234.078C375.08 228.322 374.058 222.102 374.459 215.891C374.861 209.68 376.675 203.643 379.765 198.24C382.854 192.838 387.137 188.212 392.286 184.716C397.435 181.22 403.314 178.946 409.476 178.067C415.637 177.189 421.918 177.73 427.839 179.648C433.759 181.566 439.164 184.811 443.64 189.135C448.116 193.46 451.545 198.749 453.666 204.6C455.787 210.452 456.543 216.71 455.878 222.898H455.935Z" fill="white"/>
<path d="M455.935 222.898C455.164 230.424 452.337 237.592 447.764 243.618C446.618 245.119 445.38 246.548 444.056 247.896C442.71 249.203 441.281 250.422 439.778 251.546C436.765 253.833 433.443 255.682 429.91 257.036C426.384 258.415 422.684 259.298 418.916 259.66C417.019 259.83 415.113 259.864 413.212 259.76C411.298 259.717 409.391 259.522 407.508 259.175C399.971 257.791 392.969 254.335 387.287 249.193L387.772 249.35L367.352 252.488L365.926 252.701L366.682 251.404L376.849 233.693V234.392C374.455 228.533 373.437 222.202 373.874 215.888C374.312 209.574 376.193 203.444 379.373 197.972C382.51 192.528 386.853 187.875 392.067 184.369C397.282 180.864 403.231 178.6 409.456 177.751C415.682 176.901 422.019 177.489 427.982 179.469C433.945 181.449 439.376 184.769 443.857 189.173C448.284 193.519 451.671 198.81 453.762 204.651C455.854 210.491 456.597 216.73 455.935 222.898ZM455.935 222.898C456.588 216.744 455.819 210.523 453.688 204.713C451.556 198.904 448.119 193.661 443.641 189.39C439.163 185.119 433.764 181.933 427.861 180.078C421.957 178.223 415.706 177.749 409.59 178.692C403.53 179.603 397.759 181.891 392.72 185.38C387.723 188.89 383.548 193.444 380.485 198.727C377.477 204.024 375.707 209.932 375.309 216.01C374.922 222.086 375.896 228.171 378.161 233.821L378.318 234.178L378.118 234.52L367.908 252.117L367.181 251.033L387.644 248.181H387.929L388.129 248.381C393.588 253.489 400.363 256.975 407.693 258.448C409.522 258.818 411.377 259.047 413.241 259.133C418.833 259.494 424.439 258.658 429.682 256.68C433.21 255.399 436.53 253.607 439.536 251.361C441.035 250.248 442.464 249.043 443.814 247.753C445.145 246.413 446.384 244.983 447.522 243.475C452.168 237.522 455.08 230.401 455.935 222.898Z" fill="#263238"/>
<path d="M432.62 226.349C428.045 232.481 422.21 237.562 415.508 241.251C408.803 237.565 402.968 232.483 398.396 226.349C392.35 218.363 392.692 205.843 401.248 203.134C410.816 200.139 415.508 214.542 415.508 214.542C415.508 214.542 420.271 200.054 429.768 203.134C438.338 205.929 438.666 218.363 432.62 226.349Z" fill="#F0555F"/>
<path d="M556.24 582.107C551.662 574.193 518.479 548.211 505.474 555.726C492.469 563.241 486.394 600.888 511.178 629.75C511.178 629.75 498.672 631.376 496.134 632.773C493.596 634.171 490.33 639.447 491.3 640.93C492.269 642.413 501.909 645.507 504.405 645.821C506.9 646.135 537.459 642.213 539.755 641.344C542.051 640.474 539.427 637.208 539.427 637.208C539.427 637.208 562.243 638.178 568.575 633.158C574.906 628.139 563.27 594.2 556.24 582.107Z" fill="#F0555F"/>
<path opacity="0.1" d="M556.24 582.107C551.662 574.193 518.479 548.211 505.474 555.726C492.469 563.241 486.394 600.888 511.178 629.75C511.178 629.75 498.672 631.376 496.134 632.773C493.596 634.171 490.33 639.447 491.3 640.93C492.269 642.413 501.909 645.507 504.405 645.821C506.9 646.135 537.459 642.213 539.755 641.344C542.051 640.474 539.427 637.208 539.427 637.208C539.427 637.208 562.243 638.178 568.575 633.158C574.906 628.139 563.27 594.2 556.24 582.107Z" fill="black"/>
<path d="M498.316 633.928C497.5 634.247 496.736 634.684 496.048 635.226C495.382 635.867 494.841 636.626 494.451 637.465C494.03 638.393 493.775 639.387 493.695 640.402C493.535 641.257 493.682 642.141 494.109 642.898C494.209 643.04 494.48 642.898 494.423 642.741C494.195 641.957 495.392 638.663 495.72 637.878C495.993 637.186 496.342 636.526 496.761 635.91C497.168 635.193 497.734 634.579 498.415 634.114C498.544 634.057 498.444 633.857 498.316 633.928Z" fill="#263238"/>
<path d="M504.975 635.582C504.047 635.923 503.177 636.404 502.394 637.008C501.625 637.638 500.994 638.42 500.54 639.304C499.685 640.973 499.285 643.368 500.54 645.008C500.546 645.021 500.554 645.031 500.564 645.041C500.573 645.05 500.585 645.057 500.598 645.061C500.61 645.066 500.624 645.068 500.637 645.068C500.65 645.067 500.664 645.064 500.676 645.058C500.688 645.053 500.699 645.045 500.708 645.035C500.717 645.025 500.724 645.013 500.729 645.001C500.733 644.988 500.735 644.975 500.735 644.962C500.734 644.948 500.731 644.935 500.726 644.923C500.469 644.023 500.469 643.07 500.726 642.171C501.088 640.524 501.841 638.988 502.922 637.693C503.487 636.967 504.196 636.365 505.004 635.925C505.203 635.725 505.103 635.525 504.975 635.582Z" fill="#263238"/>
<path d="M588.425 620.025C592.574 616.888 613.665 618.356 626.927 604.41C640.188 590.464 638.021 575.648 638.021 575.648C640.733 581.962 641.799 588.862 641.118 595.7C640.437 602.539 638.032 609.093 634.128 614.749C620.652 634.713 602.428 635.625 602.428 635.625L588.425 620.025Z" fill="#F0555F"/>
<path d="M493.895 497.503C489.731 500.07 462.865 523.299 461.268 526.208C459.671 529.117 453.981 537.431 451.842 537.459C449.703 537.488 440.035 515.941 437.411 513.916C434.787 511.891 420.527 510.451 418.702 511.378C416.877 512.305 410.645 514.715 411.33 517.381C412.014 520.048 426.146 525.067 426.916 526.993C427.686 528.918 431.536 550.85 434.887 553.473C438.238 556.097 455.692 564.097 459.642 564.254C463.592 564.411 504.462 551.249 505.602 548.283C506.743 545.317 495.792 496.334 493.895 497.503Z" fill="#F0555F"/>
<path opacity="0.1" d="M493.895 497.503C489.731 500.07 462.865 523.299 461.268 526.208C459.671 529.117 453.981 537.431 451.842 537.459C449.703 537.488 440.035 515.941 437.411 513.916C434.787 511.891 420.527 510.451 418.702 511.378C416.877 512.305 410.645 514.715 411.33 517.381C412.014 520.048 426.146 525.067 426.916 526.993C427.686 528.918 431.536 550.85 434.887 553.473C438.238 556.097 455.692 564.097 459.642 564.254C463.592 564.411 504.462 551.249 505.602 548.283C506.743 545.317 495.792 496.334 493.895 497.503Z" fill="black"/>
<path d="M420.527 515.114C419.113 515.261 417.747 515.708 416.52 516.426C415.279 517.155 414.339 518.303 413.868 519.663C413.856 519.71 413.859 519.76 413.878 519.805C413.896 519.85 413.928 519.888 413.97 519.913C414.011 519.939 414.059 519.95 414.108 519.946C414.156 519.942 414.202 519.923 414.239 519.891C416.149 518.137 417.961 516.012 420.57 515.328C420.592 515.316 420.609 515.298 420.619 515.276C420.63 515.254 420.633 515.229 420.628 515.205C420.623 515.181 420.611 515.159 420.593 515.143C420.574 515.127 420.552 515.116 420.527 515.114Z" fill="#263238"/>
<path d="M424.577 517.638C423.194 517.799 421.869 518.288 420.713 519.064C419.594 519.867 418.724 520.969 418.203 522.244C418.193 522.287 418.197 522.332 418.214 522.373C418.231 522.414 418.261 522.449 418.298 522.472C418.336 522.496 418.38 522.507 418.424 522.504C418.468 522.502 418.511 522.486 418.545 522.458C419.435 521.545 420.388 520.697 421.397 519.92C422.386 519.098 423.473 518.403 424.634 517.852C424.777 517.781 424.706 517.638 424.577 517.638Z" fill="#263238"/>
<path d="M481.047 405.882C473.589 411.187 461.083 422.994 455.55 433.205C450.488 442.702 443.671 459.158 456.534 465.461C470.337 472.206 483.229 462.951 487.478 449.147C491.727 435.344 492.127 417.433 492.127 417.433" fill="#F0555F"/>
<path opacity="0.1" d="M481.047 405.882C473.589 411.187 461.083 422.994 455.55 433.205C450.488 442.702 443.671 459.158 456.534 465.461C470.337 472.206 483.229 462.951 487.478 449.147C491.727 435.344 492.127 417.433 492.127 417.433" fill="black"/>
<path d="M604.881 637.508C602.185 644.11 554.742 640.06 547.484 637.622C543.563 636.338 533.581 617.173 523.57 599.519C514.871 584.246 505.717 568.147 499.2 560.375C492.854 552.832 481.774 547.27 479.036 532.953C479.036 519.107 485.539 484.469 484.74 483.885C483.942 483.3 457.361 480.248 448.548 477.696C439.736 475.143 429.226 449.19 431.051 445.154C432.876 441.119 460.569 440.106 464.277 437.24C467.985 434.374 474.958 410.602 482.344 404.841C489.731 399.08 515.556 403.772 529.402 412.299C538.843 418.089 551.078 479.065 556.995 492.526C557.523 493.239 558.25 494.252 559.106 495.464C566.863 506.316 586.756 534.108 597.608 548.753C602.057 554.743 604.396 571.412 605.38 588.539C606.649 609.586 606.392 633.857 604.881 637.508Z" fill="#F0555F"/>
<path opacity="0.1" d="M500.355 527.406C499.571 528.39 498.815 529.403 498.045 530.401C498.247 529.195 498.324 527.972 498.273 526.75C498.2 525.456 498.033 524.17 497.774 522.9C497.531 521.545 497.075 520.262 496.733 518.936C496.718 518.873 496.683 518.816 496.633 518.776C496.582 518.736 496.519 518.714 496.455 518.714C496.39 518.714 496.327 518.736 496.277 518.776C496.226 518.816 496.191 518.873 496.177 518.936C495.575 520.716 494.641 522.366 493.424 523.798C492.835 524.547 492.186 525.248 491.485 525.895C492.773 521.796 493.535 517.551 493.752 513.26C493.881 510.76 493.767 508.252 493.41 505.774C493.13 503.334 492.471 500.952 491.457 498.715C491.457 498.601 491.2 498.715 491.228 498.786C491.571 501.168 492.041 503.535 492.184 505.916C492.296 508.399 492.224 510.887 491.97 513.36C491.435 518.313 490.48 523.213 489.118 528.005C488.947 528.604 489.731 529.288 490.273 528.846C491.809 527.627 493.155 526.185 494.266 524.568C495.103 523.302 495.77 521.931 496.248 520.49V522.772C496.248 523.998 496.319 525.21 496.319 526.436C496.314 527.652 496.238 528.866 496.091 530.073C495.934 531.328 495.678 532.511 495.421 533.752C495.394 533.901 495.419 534.055 495.493 534.188C495.567 534.321 495.685 534.424 495.826 534.479C495.968 534.535 496.124 534.539 496.269 534.493C496.413 534.446 496.537 534.35 496.619 534.222C497.874 531.955 499.328 529.802 500.654 527.577C500.754 527.449 500.526 527.235 500.355 527.406Z" fill="black"/>
<path opacity="0.1" d="M587.369 544.219C586.196 543.201 584.968 542.249 583.69 541.367C583.091 540.882 582.464 540.368 581.851 539.827C583.359 540.052 584.9 539.869 586.314 539.299C586.492 539.241 586.647 539.129 586.757 538.978C586.867 538.827 586.926 538.645 586.926 538.458C586.926 538.271 586.867 538.088 586.757 537.937C586.647 537.786 586.492 537.674 586.314 537.616C580.11 535.657 574.642 531.87 570.628 526.75C570.543 526.636 570.357 526.75 570.443 526.864C572.191 529.753 574.402 532.336 576.988 534.508C578.874 536.029 580.955 537.29 583.177 538.258C582.028 538.301 580.881 538.127 579.797 537.745C579.656 537.709 579.508 537.72 579.374 537.778C579.241 537.836 579.13 537.936 579.06 538.063C578.99 538.191 578.964 538.338 578.986 538.481C579.009 538.625 579.078 538.757 579.184 538.857C580.496 539.983 581.651 541.253 583.02 542.322C584.204 543.397 585.578 544.243 587.07 544.818C587.384 544.917 587.597 544.461 587.369 544.219Z" fill="black"/>
<path d="M492.426 438.909C492.426 438.766 492.697 439.151 492.669 439.294C491.727 442.93 491.342 447.251 494.694 449.276C494.808 449.276 494.694 449.518 494.622 449.475C490.316 447.921 490.9 442.188 492.426 438.909Z" fill="#263238"/>
<path d="M496.847 435.871C503.392 436.841 501.31 448.705 495.235 447.85C489.161 446.994 491.357 435.058 496.847 435.871Z" fill="#263238"/>
<path d="M474.102 432.663C474.102 432.52 473.774 432.748 473.717 432.891C472.562 436.456 470.665 440.349 467.143 440.434C467.043 440.434 466.986 440.62 467.143 440.648C471.079 441.418 473.56 436.213 474.102 432.663Z" fill="#263238"/>
<path d="M472.362 427.928C467.015 425.575 462.509 436.784 467.457 438.966C472.405 441.147 476.84 429.896 472.362 427.928Z" fill="#263238"/>
<path d="M441.361 460.213C441.914 461.836 442.591 463.414 443.386 464.933C443.782 465.774 444.368 466.511 445.097 467.086C445.236 467.173 445.392 467.231 445.554 467.257C445.67 467.274 445.788 467.266 445.901 467.234C446.014 467.202 446.119 467.147 446.21 467.072C446.432 466.87 446.59 466.607 446.666 466.316C446.82 465.887 446.93 465.442 446.994 464.99C447.252 463.277 447.376 461.546 447.365 459.814C447.365 458.102 447.336 456.391 447.279 454.68L445.853 454.922C446.509 457.304 447.279 459.643 448.135 461.967C448.563 463.122 449.033 464.263 449.561 465.404C450.058 466.594 450.72 467.707 451.529 468.712C451.808 469.04 452.19 469.266 452.612 469.354C452.971 469.413 453.337 469.413 453.696 469.354C454.321 469.22 454.935 469.044 455.536 468.826C456.7 468.41 457.842 467.934 458.958 467.4C461.183 466.33 463.364 465.204 465.475 463.963C463.222 464.933 460.983 465.917 458.687 466.815C457.546 467.229 456.405 467.685 455.25 468.013C454.692 468.192 454.119 468.325 453.539 468.412C453.294 468.455 453.043 468.455 452.798 468.412C452.684 468.412 452.555 468.27 452.37 468.07C451.727 467.097 451.196 466.054 450.787 464.962C450.331 463.849 449.931 462.708 449.532 461.568C448.719 459.272 448.006 456.933 447.308 454.609L445.511 448.677L445.839 454.851C445.924 456.534 445.996 458.231 446.053 459.928C446.11 461.625 446.124 463.307 445.981 464.947C445.951 465.341 445.889 465.732 445.796 466.117C445.762 466.24 445.714 466.36 445.653 466.473C445.768 466.473 445.653 466.473 445.582 466.402C444.959 465.927 444.427 465.342 444.014 464.676C443.001 463.208 442.188 461.696 441.361 460.213Z" fill="#263238"/>
<path d="M446.794 455.878C448.833 456.149 459.372 452.612 458.815 449.989C457.86 445.497 439.293 442.188 436.884 445.055C435.301 446.923 444.185 455.536 446.794 455.878Z" fill="#263238"/>
<path d="M507.114 480.562C507.228 480.562 507.185 480.348 507.114 480.362C505.303 480.633 503.492 480.976 501.695 481.332C499.898 481.689 497.931 481.902 495.991 482.159C492.269 482.687 488.576 483.357 484.84 483.813C484.818 483.821 484.799 483.836 484.786 483.855C484.773 483.874 484.766 483.897 484.766 483.92C484.766 483.944 484.773 483.966 484.786 483.985C484.799 484.004 484.818 484.019 484.84 484.027C488.512 484.639 492.269 484.513 495.891 483.656C497.816 483.542 499.727 483.4 501.595 483.214C501.767 483.214 501.738 482.929 501.595 482.943C500.169 483.029 498.815 483.143 497.417 483.257C498.772 482.886 500.127 482.487 501.481 482.131C503.378 481.703 505.26 481.204 507.114 480.562Z" fill="#263238"/>
<path d="M530.101 413.055C537.388 418.588 549.58 430.738 554.728 441.162C559.491 450.801 565.808 467.471 552.746 473.361C538.743 479.692 526.137 470.038 522.315 456.106C518.493 442.174 518.665 424.264 518.665 424.264" fill="#F0555F"/>
<path d="M551.591 473.646C544.604 477.553 535.819 474.273 530.771 468.755C524.925 462.38 522.686 453.425 521.075 445.169C520.062 439.63 519.391 434.034 519.064 428.413C519.052 428.368 519.025 428.327 518.988 428.298C518.95 428.27 518.904 428.254 518.857 428.254C518.81 428.254 518.764 428.27 518.727 428.298C518.689 428.327 518.662 428.368 518.65 428.413C518.402 431.258 518.36 434.118 518.522 436.969C518.337 436.499 518.151 436.042 517.994 435.543C517.44 434.027 516.992 432.473 516.654 430.894C516.654 430.894 516.526 430.894 516.54 430.894C516.628 432.529 516.891 434.15 517.324 435.729C517.528 436.52 517.8 437.293 518.137 438.039C518.288 438.367 518.46 438.686 518.65 438.994C518.793 440.72 518.964 442.459 519.192 444.185C519.806 449.005 520.93 453.747 522.543 458.331C523.945 462.484 526.15 466.321 529.032 469.625C531.777 472.654 535.36 474.798 539.327 475.785C541.409 476.348 543.587 476.459 545.714 476.11C547.842 475.761 549.87 474.959 551.662 473.76C551.664 473.736 551.658 473.712 551.645 473.691C551.632 473.671 551.613 473.655 551.591 473.646Z" fill="#263238"/>
<path d="M494.708 546.7C495.449 552.233 497.931 633.201 497.902 634.313C497.874 635.426 490.9 637.807 489.46 640.103C488.02 642.399 486.451 646.406 487.293 647.518C488.134 648.63 496.191 650.769 498.615 651.24C501.039 651.711 513.26 649.087 515.128 648.231C516.996 647.375 518.208 639.675 518.465 638.734C518.722 637.793 534.151 580.011 533.994 574.892C533.837 569.773 494.708 546.7 494.708 546.7Z" fill="#F0555F"/>
<path d="M495.621 553.088C495.35 548.097 494.851 543.106 494.523 538.115C494.515 538.097 494.502 538.081 494.486 538.07C494.469 538.059 494.45 538.053 494.43 538.053C494.41 538.053 494.39 538.059 494.374 538.07C494.357 538.081 494.345 538.097 494.337 538.115C494.337 541.466 494.252 544.832 494.337 548.183C494.166 547.47 493.995 546.757 493.838 546.015C493.467 544.162 493.168 542.279 492.968 540.397H492.84C492.843 542.309 493.01 544.217 493.339 546.101C493.575 547.48 493.918 548.839 494.366 550.165C494.366 551.178 494.366 552.176 494.451 553.188C494.547 558.151 495.024 563.1 495.877 567.99C495.877 568.02 495.889 568.049 495.911 568.071C495.932 568.092 495.961 568.104 495.991 568.104C496.022 568.104 496.051 568.092 496.072 568.071C496.093 568.049 496.105 568.02 496.105 567.99C496.228 563.018 496.067 558.042 495.621 553.088Z" fill="#263238"/>
<path d="M541.581 564.111C540.568 566.45 539.513 568.789 538.343 571.056C537.93 571.869 537.445 572.667 536.989 573.48C538.087 569.487 539.156 565.495 540.126 561.473C540.126 561.373 540.012 561.331 539.983 561.473C537.616 568.076 535.506 574.764 533.424 581.437C532.383 584.76 531.342 588.082 530.443 591.419C529.398 594.684 528.588 598.02 528.019 601.401C528.019 601.501 528.176 601.558 528.219 601.401C529.598 598.258 530.756 595.023 531.684 591.719C532.754 588.425 533.709 585.074 534.664 581.737C535.263 579.626 535.848 577.53 536.433 575.419C536.718 574.878 537.06 574.336 537.374 573.808C538.001 572.767 538.586 571.683 539.142 570.6C540.209 568.517 541.083 566.34 541.752 564.097C541.794 564.054 541.638 564.011 541.581 564.111Z" fill="#263238"/>
<path d="M493.182 639.86C492.37 640.197 491.612 640.648 490.929 641.201C490.271 641.853 489.739 642.622 489.36 643.468C488.955 644.399 488.713 645.393 488.647 646.406C488.503 647.264 488.659 648.145 489.089 648.901C489.203 649.044 489.474 648.901 489.417 648.744C489.175 647.96 490.316 644.638 490.629 643.853C490.892 643.161 491.232 642.501 491.642 641.885C492.033 641.15 492.596 640.519 493.282 640.046C493.396 639.989 493.296 639.803 493.182 639.86Z" fill="#263238"/>
<path d="M499.856 641.429C498.934 641.775 498.07 642.256 497.289 642.855C496.532 643.497 495.915 644.288 495.478 645.179C494.636 646.862 494.28 649.258 495.592 650.812C495.598 650.824 495.605 650.835 495.615 650.844C495.625 650.853 495.637 650.861 495.649 650.865C495.662 650.87 495.675 650.872 495.689 650.871C495.702 650.871 495.715 650.868 495.727 650.862C495.74 650.856 495.75 650.848 495.76 650.839C495.769 650.829 495.776 650.817 495.78 650.805C495.785 650.792 495.787 650.779 495.787 650.765C495.786 650.752 495.783 650.739 495.777 650.727C495.521 649.827 495.521 648.874 495.777 647.974C495.951 647.143 496.219 646.335 496.576 645.564C496.938 644.815 497.388 644.111 497.916 643.468C498.465 642.731 499.159 642.115 499.956 641.657C500.084 641.557 499.984 641.372 499.856 641.429Z" fill="#263238"/>
<path opacity="0.1" d="M514.23 616.645C514.222 616.552 514.183 616.464 514.119 616.395C514.055 616.327 513.969 616.282 513.876 616.269C513.783 616.256 513.689 616.275 513.608 616.322C513.527 616.37 513.465 616.443 513.431 616.531C513.046 617.74 512.393 618.846 511.52 619.768C512.02 615.419 512.148 610.913 510.094 606.934C510.083 606.906 510.061 606.883 510.033 606.871C510.005 606.859 509.973 606.859 509.945 606.87C509.916 606.881 509.894 606.903 509.882 606.932C509.87 606.96 509.869 606.991 509.881 607.02C511.435 611.668 510.636 616.674 509.881 621.408C509.862 621.546 509.885 621.687 509.946 621.813C510.006 621.938 510.103 622.043 510.223 622.115C510.343 622.186 510.481 622.221 510.62 622.214C510.76 622.208 510.894 622.16 511.007 622.078C512.08 621.397 512.951 620.442 513.531 619.312C513.617 621.023 513.716 622.734 513.93 624.417C513.93 624.688 514.415 624.716 514.43 624.417C514.501 621.836 514.33 619.226 514.23 616.645Z" fill="black"/>
<path d="M585.259 586.97C580.567 579.141 546.999 553.673 534.108 561.373C521.217 569.074 515.713 606.82 540.896 635.312C540.896 635.312 528.404 637.123 525.894 638.549C523.385 639.975 520.19 645.322 521.174 646.791C522.158 648.26 531.855 651.197 534.351 651.482C536.846 651.768 567.348 647.361 569.644 646.463C571.94 645.564 569.245 642.342 569.245 642.342C569.245 642.342 592.061 642.955 598.335 637.836C604.61 632.716 592.446 598.92 585.259 586.97Z" fill="#F0555F"/>
<path d="M528.133 639.675C527.322 640.012 526.564 640.464 525.88 641.015C525.221 641.659 524.694 642.424 524.326 643.269C523.906 644.199 523.664 645.201 523.613 646.22C523.469 647.078 523.625 647.96 524.055 648.716C524.084 648.741 524.12 648.756 524.158 648.761C524.196 648.766 524.235 648.76 524.269 648.743C524.304 648.727 524.333 648.7 524.353 648.668C524.373 648.635 524.384 648.597 524.383 648.559C524.126 647.761 525.267 644.452 525.595 643.668C525.855 642.97 526.195 642.305 526.608 641.686C527.003 640.961 527.559 640.336 528.233 639.86C528.245 639.854 528.256 639.845 528.265 639.834C528.274 639.824 528.28 639.811 528.284 639.798C528.288 639.785 528.289 639.771 528.288 639.757C528.287 639.743 528.283 639.73 528.276 639.718C528.269 639.706 528.261 639.695 528.25 639.686C528.239 639.677 528.227 639.671 528.214 639.667C528.2 639.663 528.186 639.662 528.173 639.663C528.159 639.664 528.146 639.668 528.133 639.675Z" fill="#263238"/>
<path d="M534.821 641.229C533.899 641.573 533.033 642.053 532.254 642.655C531.486 643.29 530.863 644.083 530.429 644.98C529.602 646.662 529.246 649.058 530.558 650.684C530.558 650.684 530.771 650.684 530.729 650.584C530.479 649.688 530.479 648.742 530.729 647.846C530.9 647.014 531.168 646.205 531.527 645.436C531.886 644.684 532.331 643.975 532.853 643.326C533.403 642.589 534.103 641.976 534.907 641.529C535.049 641.372 534.95 641.172 534.821 641.229Z" fill="#263238"/>
<path d="M581.123 582.079C578.37 578.926 575.355 576.011 572.111 573.366L572.881 573.708C574.407 574.464 575.918 575.234 577.416 576.047C577.516 576.047 577.644 575.961 577.558 575.876C576.349 574.635 574.891 573.663 573.28 573.024C572.46 572.706 571.622 572.434 570.771 572.211H570.642C566.846 569.258 562.772 566.679 558.479 564.511C550.664 560.546 539.941 555.955 532.411 563.013C529.074 566.136 527.078 570.614 525.666 574.949C524.065 579.935 523.205 585.128 523.114 590.364C523.115 600.855 525.356 611.225 529.688 620.781C531.627 625.627 534.645 629.968 538.515 633.472C540.381 635.076 542.429 636.454 544.618 637.579C546.854 638.656 549.202 639.484 551.619 640.046C551.748 640.046 551.819 639.861 551.691 639.832C547.62 638.557 543.865 636.438 540.668 633.615C537.299 630.757 534.539 627.251 532.554 623.305C530.345 618.788 528.587 614.064 527.306 609.201C525.965 604.451 525.138 599.57 524.839 594.642C524.516 589.549 524.92 584.435 526.037 579.455C526.946 574.868 528.753 570.506 531.356 566.621C532.513 564.845 534.1 563.391 535.97 562.394C537.84 561.397 539.932 560.889 542.051 560.917C546.657 561.031 551.12 562.985 555.284 564.824C564.782 569.077 573.467 574.949 580.952 582.179C581.066 582.364 581.237 582.193 581.123 582.079Z" fill="#263238"/>
<path d="M567.876 638.221C567.929 637.502 567.866 636.78 567.691 636.082C567.461 635.176 567.151 634.293 566.764 633.443C566.764 633.344 566.564 633.443 566.593 633.529C566.844 634.41 567.044 635.305 567.191 636.21C567.191 636.538 567.291 636.852 567.348 637.165C567.348 637.051 567.249 636.937 567.191 636.837C566.208 635.041 565.167 633.272 564.097 631.533C564.097 631.533 563.955 631.533 563.983 631.533C564.767 633.443 565.537 635.369 566.364 637.237C566.764 638.164 567.206 639.076 567.676 639.989C568.001 640.813 568.514 641.55 569.174 642.142C569.191 642.152 569.211 642.157 569.231 642.157C569.251 642.157 569.271 642.152 569.288 642.142C569.305 642.132 569.32 642.117 569.33 642.1C569.34 642.082 569.345 642.062 569.345 642.042C569.273 641.131 568.995 640.249 568.532 639.461C568.318 639.09 568.09 638.663 567.876 638.221Z" fill="#263238"/>
<path opacity="0.1" d="M584.959 592.945C582.987 592.629 581.068 592.043 579.255 591.205C577.489 590.203 575.93 588.872 574.664 587.284C574.564 587.184 574.421 587.284 574.507 587.455C575.733 589.154 577.203 590.663 578.87 591.933C579.931 592.615 581.071 593.165 582.264 593.572C581.719 593.68 581.165 593.737 580.61 593.744C580.059 593.805 579.5 593.729 578.985 593.522C578.47 593.316 578.014 592.985 577.658 592.56C577.53 592.346 577.145 592.56 577.245 592.745C578.084 595.059 579.624 597.053 581.651 598.449C580.893 598.433 580.143 598.298 579.426 598.05C579.227 598.05 579.113 598.278 579.298 598.378C580.665 599.131 582.218 599.482 583.776 599.391C583.91 599.379 584.037 599.326 584.139 599.238C584.241 599.15 584.313 599.032 584.345 598.902C584.376 598.771 584.366 598.633 584.315 598.508C584.264 598.384 584.175 598.278 584.061 598.207C582.799 597.523 581.593 596.741 580.453 595.868C579.942 595.43 579.465 594.953 579.027 594.442C580.97 595.11 583.09 595.045 584.988 594.257C585.121 594.205 585.235 594.113 585.315 593.994C585.394 593.875 585.435 593.734 585.432 593.591C585.429 593.448 585.382 593.309 585.297 593.194C585.213 593.078 585.095 592.991 584.959 592.945Z" fill="black"/>
</svg>
